<?xml version="1.0" encoding="utf-8"?>
<!-- Generator: Adobe Illustrator 21.1.0, SVG Export Plug-In . SVG Version: 6.00 Build 0)  -->
<svg version="1.1" xmlns="http://www.w3.org/2000/svg" xmlns:xlink="http://www.w3.org/1999/xlink" x="0px" y="0px"
	 viewBox="0 0 520 367" enable-background="new 0 0 520 367" xml:space="preserve">
<g id="Ebene_2">
	<rect fill="#FFFFFF" width="520" height="369"/>
</g>
<g id="Ebene_1">
	<path fill="#CCCCCC" stroke="#000000" stroke-miterlimit="10" d="M300.912,345.59c17.948-27.451,34.841-116.137,40.12-154.146
		S330.474,119.65,311.47,80.586c-19.004-39.064-38.009-46.455-44.343-46.455c-6.335,0-7.391,8.446-17.948,20.06
		c-8.035,8.839-23.227,45.399-32.73,61.236c-9.502,15.837-31.674,57.013-31.674,85.519c0,60.18,31.674,147.811,31.674,147.811
		L300.912,345.59z"/>
	<path fill="#F2F2F2" stroke="#000000" stroke-miterlimit="10" d="M223.311,348.229c0.528,0.528-30.609-95.832-30.646-151.404
		c-0.017-26.269,20.245-64.212,28.921-78.806c8.676-14.594,22.548-48.284,29.885-56.429c9.64-10.702,10.604-18.485,16.389-18.485
		c5.784,0,23.137,6.81,40.489,42.808c17.353,35.998,31.813,67.131,26.993,102.156c-4.82,35.025-22.265,132.225-38.654,157.521"/>
	<path fill="#B3B3B3" stroke="#000000" stroke-miterlimit="10" d="M291.41,345.59c15.184-23.578,34.257-125.215,38.723-157.861
		c4.466-32.647-8.932-61.666-25.009-95.219c-16.077-33.553-32.154-39.901-37.513-39.901s-6.252,7.255-15.184,17.23
		c-6.797,7.592-19.65,38.995-27.688,52.597c-8.038,13.603-26.795,48.97-26.795,73.455c0,51.691,31.174,152.867,31.174,152.867
		L291.41,345.59z"/>
	<path fill="#FFFFFF" stroke="#000000" stroke-miterlimit="10" d="M209.557,152.202c-10.587,21.466,4.252,10.207,19.033,11.263
		c14.781,1.056,29.562-11.614,54.901-34.841c25.339-23.227,17.391-44.36,17.391-44.36s-10.731-18.824-21.169-26.402
		c-9.419-6.839-14.698-4.727-14.698-4.727l-4.223,5.279l-7.156,10.03c0,0-8.421,12.284-9.078,14.324
		c-0.658,2.041-28.285,55.182-28.285,55.182L209.557,152.202z"/>
	<path fill="#808080" stroke="#000000" stroke-miterlimit="10" d="M267.654,86.393c0,0-15.837-24.283,1.408-20.006
		c6.047,1.5-17.245,1.001,7.039,20.006"/>
	<path fill="#F2F2F2" stroke="#000000" stroke-miterlimit="10" d="M274.632,81.38c0,0-19.75,9.493-33.158,25.258
		c-19.775,23.252-5.219,39.617,9.287,30.432s1.291-19.137,13.725-30.618c12.434-11.481,7.547-15.15,15.837-10.558
		c8.289,4.592,6.862-11.029,4.789-13.325S274.632,81.38,274.632,81.38z"/>
	<path fill="#E6E6E6" stroke="#000000" stroke-miterlimit="10" d="M273.885,84.461c0,0-16.112,6.989-27.051,18.597
		c-16.133,17.12-7.907,27.05,3.928,20.287c11.835-6.763,0.414-14.774,10.558-23.227c10.144-8.453,11.186-11.828,17.948-8.446
		c6.763,3.381,4.858-4.644,3.167-6.335C280.745,83.646,273.885,84.461,273.885,84.461z"/>
	<path fill="#CCCCCC" stroke="#000000" stroke-miterlimit="10" d="M273.989,87.449c0,0-21.116,10.558-24.967,18.91
		c-4.172,9.047-7.506,15.744,0,11.546c7.506-4.198,0.586-10.427,7.019-15.675c6.433-5.248,14.715-15.825,19.004-13.725
		s6.045-1.088,4.973-2.138C278.945,85.317,273.989,87.449,273.989,87.449z"/>
	<g>
		<path d="M476.213,304.721c0,0.597-0.217,1.062-0.65,1.396c-0.433,0.334-1.021,0.501-1.763,0.501c-0.805,0-1.423-0.104-1.855-0.311
			v-0.761c0.278,0.117,0.581,0.21,0.909,0.278c0.328,0.067,0.652,0.102,0.975,0.102c0.525,0,0.921-0.1,1.188-0.299
			c0.266-0.2,0.398-0.478,0.398-0.833c0-0.235-0.047-0.428-0.141-0.578c-0.095-0.149-0.253-0.288-0.474-0.415
			c-0.222-0.127-0.558-0.271-1.009-0.432c-0.632-0.226-1.082-0.493-1.353-0.803c-0.271-0.309-0.406-0.713-0.406-1.211
			c0-0.522,0.196-0.938,0.589-1.248c0.393-0.309,0.913-0.464,1.56-0.464c0.674,0,1.294,0.124,1.86,0.371l-0.246,0.687
			c-0.56-0.234-1.104-0.353-1.633-0.353c-0.418,0-0.744,0.09-0.979,0.27s-0.353,0.429-0.353,0.747c0,0.235,0.043,0.428,0.13,0.577
			c0.087,0.15,0.232,0.288,0.438,0.413s0.521,0.264,0.944,0.415c0.711,0.254,1.201,0.526,1.469,0.817
			C476.079,303.879,476.213,304.257,476.213,304.721z"/>
		<path d="M479.85,306.618c-0.331,0-0.633-0.062-0.907-0.184c-0.273-0.122-0.503-0.31-0.688-0.563h-0.056
			c0.037,0.297,0.056,0.578,0.056,0.845v2.093h-0.771v-7.368h0.627l0.106,0.695h0.037c0.198-0.278,0.429-0.479,0.691-0.603
			s0.564-0.186,0.904-0.186c0.675,0,1.195,0.23,1.562,0.691s0.55,1.107,0.55,1.939c0,0.835-0.187,1.483-0.56,1.946
			C481.029,306.387,480.512,306.618,479.85,306.618z M479.738,302.002c-0.52,0-0.896,0.144-1.127,0.432
			c-0.232,0.287-0.352,0.745-0.357,1.373v0.172c0,0.714,0.119,1.226,0.357,1.533s0.62,0.462,1.146,0.462
			c0.439,0,0.783-0.178,1.032-0.534c0.249-0.355,0.374-0.846,0.374-1.471c0-0.634-0.125-1.12-0.374-1.459
			S480.19,302.002,479.738,302.002z"/>
		<path d="M485.455,306.618c-0.752,0-1.345-0.229-1.779-0.687s-0.652-1.094-0.652-1.907c0-0.819,0.202-1.471,0.605-1.953
			c0.404-0.482,0.946-0.724,1.627-0.724c0.637,0,1.141,0.209,1.512,0.629c0.372,0.419,0.558,0.972,0.558,1.658v0.487h-3.503
			c0.015,0.597,0.166,1.05,0.452,1.359s0.688,0.464,1.208,0.464c0.548,0,1.089-0.114,1.624-0.343v0.687
			c-0.271,0.117-0.529,0.201-0.772,0.253C486.092,306.593,485.799,306.618,485.455,306.618z M485.246,301.992
			c-0.408,0-0.733,0.133-0.977,0.399c-0.243,0.266-0.386,0.634-0.429,1.104h2.658c0-0.486-0.108-0.858-0.325-1.116
			C485.958,302.121,485.648,301.992,485.246,301.992z"/>
		<path d="M489.408,306.525h-0.771v-7.22h0.771V306.525z"/>
		<path d="M494.294,306.525h-3.688v-0.524l2.774-3.962h-2.604v-0.599h3.447v0.599l-2.737,3.888h2.808V306.525z"/>
		<path d="M497.634,306.618c-0.752,0-1.345-0.229-1.779-0.687s-0.652-1.094-0.652-1.907c0-0.819,0.202-1.471,0.605-1.953
			c0.404-0.482,0.946-0.724,1.627-0.724c0.637,0,1.141,0.209,1.512,0.629c0.372,0.419,0.558,0.972,0.558,1.658v0.487h-3.503
			c0.015,0.597,0.166,1.05,0.452,1.359s0.688,0.464,1.208,0.464c0.548,0,1.089-0.114,1.624-0.343v0.687
			c-0.271,0.117-0.529,0.201-0.772,0.253C498.271,306.593,497.978,306.618,497.634,306.618z M497.425,301.992
			c-0.408,0-0.733,0.133-0.977,0.399c-0.243,0.266-0.386,0.634-0.429,1.104h2.658c0-0.486-0.108-0.858-0.325-1.116
			C498.137,302.121,497.827,301.992,497.425,301.992z"/>
	</g>
	<g>
		<path d="M28.976,55.247h-0.78l-1.368-4.542c-0.065-0.201-0.138-0.455-0.218-0.761s-0.123-0.49-0.125-0.552
			c-0.068,0.409-0.177,0.855-0.325,1.341l-1.327,4.515h-0.779l-1.805-6.783h0.835l1.071,4.189c0.148,0.588,0.258,1.12,0.325,1.596
			c0.083-0.566,0.207-1.12,0.371-1.661l1.216-4.125h0.835l1.276,4.162c0.148,0.479,0.273,1.021,0.375,1.624
			c0.059-0.439,0.17-0.974,0.334-1.605l1.068-4.18h0.834L28.976,55.247z"/>
		<path d="M32.46,50.162v3.299c0,0.415,0.095,0.724,0.282,0.928c0.189,0.204,0.484,0.306,0.887,0.306
			c0.532,0,0.921-0.145,1.167-0.436c0.246-0.291,0.368-0.766,0.368-1.424v-2.672h0.771v5.085h-0.637l-0.111-0.682h-0.041
			c-0.158,0.25-0.377,0.442-0.656,0.575c-0.281,0.133-0.6,0.2-0.959,0.2c-0.618,0-1.082-0.147-1.389-0.441
			c-0.309-0.293-0.463-0.764-0.463-1.41v-3.327H32.46z"/>
		<path d="M39.888,50.069c0.226,0,0.429,0.019,0.608,0.056l-0.107,0.714c-0.21-0.046-0.396-0.07-0.557-0.07
			c-0.411,0-0.764,0.167-1.055,0.501c-0.293,0.334-0.439,0.75-0.439,1.248v2.728h-0.77v-5.085h0.635l0.089,0.942h0.037
			c0.188-0.331,0.416-0.586,0.683-0.766C39.277,50.158,39.569,50.069,39.888,50.069z"/>
		<path d="M44.699,55.247h-3.688v-0.524l2.774-3.962h-2.603v-0.598h3.447v0.598l-2.737,3.888h2.807V55.247z"/>
		<path d="M48.04,55.339c-0.751,0-1.345-0.229-1.779-0.687c-0.435-0.458-0.651-1.094-0.651-1.907c0-0.819,0.201-1.471,0.605-1.953
			c0.402-0.482,0.945-0.724,1.625-0.724c0.638,0,1.143,0.209,1.514,0.628c0.371,0.419,0.557,0.972,0.557,1.659v0.487h-3.504
			c0.016,0.597,0.167,1.05,0.453,1.359c0.285,0.31,0.689,0.464,1.209,0.464c0.547,0,1.088-0.114,1.623-0.343v0.687
			c-0.271,0.118-0.529,0.202-0.771,0.253C48.676,55.314,48.383,55.339,48.04,55.339z M47.831,50.713
			c-0.408,0-0.733,0.133-0.977,0.399c-0.243,0.266-0.386,0.634-0.429,1.104h2.658c0-0.485-0.108-0.857-0.324-1.116
			C48.543,50.843,48.233,50.713,47.831,50.713z"/>
		<path d="M51.993,55.247h-0.771v-7.219h0.771V55.247z"/>
		<path d="M54.387,52.644c0.133-0.188,0.336-0.436,0.608-0.742l1.642-1.74h0.914l-2.06,2.167l2.204,2.918h-0.933l-1.796-2.403
			l-0.58,0.501v1.902h-0.761v-7.219h0.761v3.828c0,0.17-0.012,0.433-0.037,0.789H54.387z"/>
		<path d="M60.762,55.339c-0.751,0-1.344-0.229-1.779-0.687c-0.434-0.458-0.651-1.094-0.651-1.907c0-0.819,0.202-1.471,0.605-1.953
			s0.946-0.724,1.626-0.724c0.637,0,1.142,0.209,1.513,0.628c0.371,0.419,0.557,0.972,0.557,1.659v0.487h-3.503
			c0.016,0.597,0.166,1.05,0.453,1.359c0.285,0.31,0.688,0.464,1.208,0.464c0.548,0,1.089-0.114,1.624-0.343v0.687
			c-0.272,0.118-0.529,0.202-0.772,0.253C61.398,55.314,61.105,55.339,60.762,55.339z M60.553,50.713
			c-0.408,0-0.733,0.133-0.977,0.399c-0.242,0.266-0.385,0.634-0.429,1.104h2.659c0-0.485-0.109-0.857-0.325-1.116
			C61.265,50.843,60.955,50.713,60.553,50.713z"/>
		<path d="M63.88,48.784c0-0.177,0.044-0.306,0.13-0.388c0.087-0.082,0.195-0.123,0.325-0.123c0.124,0,0.229,0.042,0.319,0.125
			s0.135,0.212,0.135,0.385c0,0.173-0.045,0.302-0.135,0.387s-0.195,0.127-0.319,0.127c-0.13,0-0.238-0.042-0.325-0.127
			C63.924,49.086,63.88,48.957,63.88,48.784z M64.715,55.247h-0.77v-5.085h0.77V55.247z"/>
		<path d="M72.83,55.247v-3.308c0-0.405-0.087-0.709-0.26-0.912c-0.174-0.203-0.442-0.304-0.808-0.304
			c-0.479,0-0.833,0.138-1.062,0.413c-0.229,0.275-0.343,0.699-0.343,1.271v2.839h-0.771v-3.308c0-0.405-0.087-0.709-0.26-0.912
			s-0.444-0.304-0.812-0.304c-0.482,0-0.836,0.145-1.061,0.434s-0.336,0.763-0.336,1.422v2.668h-0.771v-5.085h0.627l0.125,0.696
			h0.037c0.146-0.248,0.351-0.441,0.615-0.58c0.264-0.139,0.561-0.208,0.889-0.208c0.795,0,1.314,0.288,1.559,0.863h0.037
			c0.151-0.266,0.371-0.476,0.658-0.631c0.289-0.155,0.616-0.232,0.984-0.232c0.575,0,1.006,0.147,1.292,0.443
			S73.6,51.28,73.6,51.929v3.317H72.83z"/>
		<path d="M78.314,55.247l-0.154-0.724h-0.037c-0.253,0.318-0.506,0.534-0.758,0.647s-0.566,0.169-0.944,0.169
			c-0.505,0-0.899-0.13-1.186-0.39s-0.429-0.629-0.429-1.109c0-1.027,0.82-1.565,2.463-1.615l0.863-0.028v-0.315
			c0-0.399-0.086-0.694-0.258-0.884c-0.172-0.19-0.445-0.286-0.823-0.286c-0.424,0-0.903,0.13-1.438,0.39l-0.236-0.589
			c0.25-0.136,0.525-0.243,0.824-0.32c0.298-0.077,0.598-0.116,0.896-0.116c0.607,0,1.057,0.134,1.349,0.403
			s0.438,0.701,0.438,1.294v3.471H78.314z M76.574,54.704c0.479,0,0.855-0.131,1.129-0.394c0.274-0.263,0.411-0.631,0.411-1.104
			v-0.459l-0.771,0.033c-0.611,0.021-1.054,0.117-1.324,0.285c-0.271,0.169-0.406,0.431-0.406,0.787c0,0.278,0.084,0.49,0.253,0.636
			C76.035,54.631,76.271,54.704,76.574,54.704z"/>
		<path d="M83.951,55.247v-3.29c0-0.415-0.094-0.724-0.283-0.928c-0.188-0.205-0.484-0.307-0.887-0.307
			c-0.531,0-0.921,0.144-1.168,0.432c-0.248,0.288-0.371,0.763-0.371,1.424v2.668h-0.771v-5.085h0.627l0.125,0.696h0.037
			c0.158-0.25,0.379-0.445,0.664-0.583c0.284-0.137,0.602-0.206,0.951-0.206c0.612,0,1.073,0.147,1.383,0.443
			c0.309,0.295,0.463,0.768,0.463,1.417v3.317H83.951z"/>
		<path d="M87.074,55.247h-0.771v-7.219h0.771V55.247z"/>
		<path d="M91.834,55.247l-0.152-0.724h-0.037c-0.254,0.318-0.507,0.534-0.759,0.647c-0.253,0.113-0.567,0.169-0.944,0.169
			c-0.504,0-0.899-0.13-1.186-0.39s-0.43-0.629-0.43-1.109c0-1.027,0.822-1.565,2.465-1.615l0.862-0.028v-0.315
			c0-0.399-0.086-0.694-0.257-0.884c-0.172-0.19-0.447-0.286-0.824-0.286c-0.424,0-0.903,0.13-1.438,0.39l-0.237-0.589
			c0.251-0.136,0.524-0.243,0.823-0.32c0.299-0.077,0.598-0.116,0.898-0.116c0.605,0,1.055,0.134,1.348,0.403
			c0.292,0.269,0.438,0.701,0.438,1.294v3.471H91.834z M90.095,54.704c0.479,0,0.856-0.131,1.13-0.394
			c0.273-0.263,0.41-0.631,0.41-1.104v-0.459l-0.77,0.033c-0.613,0.021-1.055,0.117-1.325,0.285
			c-0.271,0.169-0.405,0.431-0.405,0.787c0,0.278,0.084,0.49,0.252,0.636C89.556,54.631,89.791,54.704,90.095,54.704z"/>
		<path d="M98.153,50.162v0.487l-0.942,0.111c0.087,0.108,0.164,0.25,0.232,0.425s0.102,0.372,0.102,0.591
			c0,0.498-0.17,0.896-0.51,1.192c-0.34,0.297-0.808,0.446-1.401,0.446c-0.151,0-0.294-0.013-0.427-0.037
			c-0.328,0.173-0.492,0.391-0.492,0.654c0,0.14,0.058,0.242,0.172,0.309c0.115,0.067,0.311,0.1,0.59,0.1h0.899
			c0.551,0,0.974,0.116,1.269,0.348c0.296,0.232,0.443,0.569,0.443,1.012c0,0.563-0.226,0.992-0.678,1.288
			c-0.451,0.295-1.109,0.443-1.976,0.443c-0.665,0-1.179-0.124-1.538-0.371c-0.36-0.248-0.541-0.597-0.541-1.049
			c0-0.309,0.1-0.577,0.297-0.802c0.198-0.226,0.477-0.379,0.836-0.459c-0.131-0.059-0.239-0.15-0.328-0.274
			c-0.088-0.124-0.132-0.268-0.132-0.432c0-0.186,0.05-0.348,0.148-0.487s0.255-0.274,0.469-0.404
			c-0.263-0.108-0.478-0.292-0.643-0.552s-0.248-0.557-0.248-0.891c0-0.557,0.167-0.986,0.501-1.288s0.807-0.452,1.42-0.452
			c0.266,0,0.506,0.031,0.719,0.093H98.153z M94.098,56.1c0,0.275,0.116,0.484,0.349,0.626c0.231,0.142,0.564,0.213,0.997,0.213
			c0.646,0,1.125-0.097,1.436-0.29c0.312-0.193,0.467-0.455,0.467-0.786c0-0.275-0.085-0.466-0.255-0.573
			c-0.171-0.106-0.49-0.16-0.96-0.16h-0.924c-0.35,0-0.621,0.083-0.816,0.251C94.195,55.548,94.098,55.788,94.098,56.1z
			 M94.516,51.79c0,0.355,0.101,0.625,0.302,0.807c0.2,0.183,0.481,0.274,0.84,0.274c0.751,0,1.128-0.365,1.128-1.095
			c0-0.764-0.381-1.146-1.143-1.146c-0.361,0-0.64,0.098-0.834,0.292C94.613,51.117,94.516,51.407,94.516,51.79z"/>
		<path d="M101.346,55.339c-0.752,0-1.345-0.229-1.779-0.687c-0.435-0.458-0.652-1.094-0.652-1.907c0-0.819,0.202-1.471,0.605-1.953
			c0.404-0.482,0.946-0.724,1.627-0.724c0.637,0,1.141,0.209,1.512,0.628c0.371,0.419,0.557,0.972,0.557,1.659v0.487h-3.502
			c0.016,0.597,0.166,1.05,0.452,1.359c0.286,0.31,0.688,0.464,1.208,0.464c0.548,0,1.09-0.114,1.625-0.343v0.687
			c-0.273,0.118-0.53,0.202-0.773,0.253C101.982,55.314,101.689,55.339,101.346,55.339z M101.137,50.713
			c-0.408,0-0.734,0.133-0.977,0.399c-0.242,0.266-0.386,0.634-0.43,1.104h2.659c0-0.485-0.108-0.857-0.325-1.116
			S101.539,50.713,101.137,50.713z"/>
	</g>
	<g>
		<path d="M441.5,48.912h-0.789v-6.783h3.781v0.701H441.5v2.482h2.812v0.701H441.5V48.912z"/>
		<path d="M447.819,43.734c0.226,0,0.428,0.019,0.607,0.056l-0.106,0.714c-0.211-0.046-0.396-0.07-0.557-0.07
			c-0.412,0-0.764,0.167-1.056,0.501s-0.438,0.75-0.438,1.248v2.728h-0.771v-5.085h0.636l0.088,0.942h0.037
			c0.189-0.331,0.416-0.586,0.683-0.766C447.208,43.824,447.5,43.734,447.819,43.734z"/>
		<path d="M450.102,43.827v3.299c0,0.415,0.095,0.724,0.283,0.928s0.484,0.306,0.887,0.306c0.531,0,0.921-0.145,1.167-0.436
			c0.245-0.291,0.368-0.766,0.368-1.424v-2.672h0.771v5.085h-0.636l-0.111-0.682h-0.042c-0.157,0.25-0.376,0.442-0.656,0.575
			c-0.28,0.133-0.6,0.2-0.958,0.2c-0.619,0-1.082-0.147-1.39-0.441c-0.308-0.293-0.462-0.764-0.462-1.41v-3.327H450.102z"/>
		<path d="M457.242,49.005c-0.736,0-1.306-0.227-1.71-0.68c-0.403-0.453-0.605-1.094-0.605-1.923c0-0.851,0.205-1.508,0.615-1.972
			s0.993-0.696,1.751-0.696c0.245,0,0.489,0.026,0.733,0.079c0.244,0.053,0.437,0.115,0.575,0.186l-0.236,0.654
			c-0.17-0.068-0.355-0.125-0.557-0.169s-0.379-0.067-0.534-0.067c-1.033,0-1.549,0.659-1.549,1.977
			c0,0.625,0.126,1.104,0.378,1.438s0.625,0.501,1.12,0.501c0.424,0,0.858-0.091,1.304-0.273v0.682
			C458.188,48.917,457.759,49.005,457.242,49.005z"/>
		<path d="M463.213,48.912v-3.29c0-0.415-0.094-0.724-0.282-0.928c-0.189-0.205-0.484-0.307-0.887-0.307
			c-0.535,0-0.926,0.146-1.171,0.437c-0.246,0.291-0.369,0.767-0.369,1.429v2.659h-0.771v-7.219h0.771v2.185
			c0,0.263-0.013,0.481-0.037,0.654h0.046c0.152-0.244,0.367-0.437,0.647-0.578s0.6-0.211,0.958-0.211
			c0.622,0,1.088,0.147,1.399,0.443c0.311,0.295,0.466,0.765,0.466,1.408v3.317H463.213z"/>
		<path d="M467.208,48.369c0.136,0,0.268-0.01,0.395-0.03c0.127-0.02,0.228-0.041,0.302-0.062v0.589
			c-0.084,0.04-0.207,0.073-0.369,0.1s-0.309,0.04-0.438,0.04c-0.983,0-1.476-0.518-1.476-1.554v-3.025h-0.729v-0.371l0.729-0.32
			l0.325-1.086h0.445v1.179h1.476v0.598h-1.476v2.993c0,0.306,0.072,0.542,0.218,0.706
			C466.755,48.287,466.954,48.369,467.208,48.369z"/>
		<path d="M472.2,47.525c0,0.473-0.176,0.838-0.528,1.095c-0.354,0.257-0.848,0.385-1.485,0.385c-0.674,0-1.2-0.107-1.577-0.32
			V47.97c0.244,0.124,0.506,0.221,0.786,0.292s0.55,0.106,0.81,0.106c0.402,0,0.712-0.064,0.928-0.192
			c0.217-0.128,0.325-0.324,0.325-0.587c0-0.198-0.086-0.367-0.258-0.508c-0.171-0.141-0.506-0.307-1.004-0.499
			c-0.474-0.176-0.81-0.33-1.01-0.462c-0.199-0.131-0.348-0.28-0.445-0.447c-0.098-0.167-0.146-0.367-0.146-0.599
			c0-0.415,0.168-0.742,0.505-0.981c0.338-0.24,0.8-0.359,1.388-0.359c0.548,0,1.083,0.111,1.605,0.334l-0.273,0.626
			c-0.511-0.21-0.974-0.316-1.388-0.316c-0.365,0-0.641,0.058-0.826,0.172s-0.278,0.272-0.278,0.473
			c0,0.136,0.035,0.252,0.104,0.348s0.182,0.187,0.337,0.274c0.154,0.086,0.451,0.211,0.891,0.375
			c0.603,0.22,1.011,0.441,1.223,0.664S472.2,47.188,472.2,47.525z"/>
		<path d="M475.485,49.005c-0.736,0-1.306-0.227-1.71-0.68c-0.403-0.453-0.605-1.094-0.605-1.923c0-0.851,0.205-1.508,0.615-1.972
			s0.993-0.696,1.751-0.696c0.245,0,0.489,0.026,0.733,0.079c0.244,0.053,0.437,0.115,0.575,0.186l-0.236,0.654
			c-0.17-0.068-0.355-0.125-0.557-0.169s-0.379-0.067-0.534-0.067c-1.033,0-1.549,0.659-1.549,1.977
			c0,0.625,0.126,1.104,0.378,1.438s0.625,0.501,1.12,0.501c0.424,0,0.858-0.091,1.304-0.273v0.682
			C476.431,48.917,476.002,49.005,475.485,49.005z"/>
		<path d="M481.456,48.912v-3.29c0-0.415-0.094-0.724-0.282-0.928c-0.189-0.205-0.484-0.307-0.887-0.307
			c-0.535,0-0.926,0.146-1.171,0.437c-0.246,0.291-0.369,0.767-0.369,1.429v2.659h-0.771v-7.219h0.771v2.185
			c0,0.263-0.013,0.481-0.037,0.654h0.046c0.152-0.244,0.367-0.437,0.647-0.578s0.6-0.211,0.958-0.211
			c0.622,0,1.088,0.147,1.399,0.443c0.311,0.295,0.466,0.765,0.466,1.408v3.317H481.456z"/>
		<path d="M486.936,48.912l-0.152-0.724h-0.037c-0.254,0.318-0.507,0.534-0.759,0.647s-0.567,0.169-0.944,0.169
			c-0.504,0-0.899-0.13-1.186-0.39s-0.429-0.629-0.429-1.109c0-1.027,0.821-1.565,2.463-1.615l0.863-0.028v-0.315
			c0-0.399-0.086-0.694-0.258-0.884c-0.171-0.19-0.445-0.286-0.823-0.286c-0.424,0-0.903,0.13-1.438,0.39l-0.236-0.589
			c0.251-0.136,0.525-0.243,0.823-0.32c0.299-0.077,0.598-0.116,0.898-0.116c0.605,0,1.055,0.134,1.348,0.403
			c0.292,0.269,0.438,0.701,0.438,1.294v3.471H486.936z M485.196,48.369c0.479,0,0.855-0.131,1.13-0.394
			c0.273-0.263,0.41-0.631,0.41-1.104v-0.459l-0.771,0.033c-0.612,0.021-1.054,0.117-1.324,0.285
			c-0.271,0.169-0.406,0.431-0.406,0.787c0,0.278,0.085,0.49,0.253,0.636C484.657,48.296,484.893,48.369,485.196,48.369z"/>
		<path d="M489.864,48.912h-0.771v-7.219h0.771V48.912z"/>
		<path d="M493.646,49.005c-0.752,0-1.345-0.229-1.779-0.687c-0.435-0.458-0.652-1.094-0.652-1.907c0-0.819,0.202-1.471,0.605-1.953
			c0.404-0.482,0.946-0.724,1.627-0.724c0.637,0,1.141,0.209,1.512,0.628c0.372,0.419,0.558,0.972,0.558,1.659v0.487h-3.503
			c0.015,0.597,0.166,1.05,0.452,1.359c0.286,0.31,0.688,0.464,1.208,0.464c0.548,0,1.089-0.114,1.624-0.343v0.687
			c-0.271,0.118-0.529,0.202-0.772,0.253C494.282,48.979,493.989,49.005,493.646,49.005z M493.437,44.379
			c-0.408,0-0.733,0.133-0.977,0.399c-0.243,0.266-0.386,0.634-0.429,1.104h2.658c0-0.485-0.108-0.857-0.325-1.116
			C494.148,44.508,493.839,44.379,493.437,44.379z"/>
	</g>
	<g>
		<path d="M443.483,71.391c0,0.597-0.217,1.062-0.65,1.396c-0.433,0.334-1.021,0.501-1.763,0.501c-0.805,0-1.423-0.104-1.855-0.311
			v-0.761c0.278,0.118,0.581,0.21,0.909,0.278c0.328,0.068,0.652,0.102,0.975,0.102c0.525,0,0.921-0.1,1.188-0.299
			c0.266-0.199,0.398-0.477,0.398-0.833c0-0.235-0.047-0.428-0.141-0.578c-0.095-0.15-0.253-0.289-0.474-0.416
			c-0.222-0.126-0.558-0.271-1.009-0.431c-0.632-0.226-1.082-0.494-1.353-0.803c-0.271-0.31-0.406-0.713-0.406-1.211
			c0-0.523,0.196-0.939,0.589-1.248c0.393-0.31,0.913-0.464,1.56-0.464c0.674,0,1.294,0.124,1.86,0.372l-0.246,0.687
			c-0.56-0.235-1.104-0.353-1.633-0.353c-0.418,0-0.744,0.089-0.979,0.269c-0.235,0.179-0.353,0.428-0.353,0.747
			c0,0.235,0.043,0.427,0.13,0.578c0.087,0.15,0.232,0.288,0.438,0.413c0.206,0.125,0.521,0.264,0.944,0.416
			c0.711,0.253,1.201,0.526,1.469,0.816C443.35,70.549,443.483,70.926,443.483,71.391z"/>
		<path d="M447.881,73.195l-0.152-0.724h-0.037c-0.254,0.318-0.507,0.534-0.759,0.647s-0.567,0.169-0.944,0.169
			c-0.504,0-0.899-0.13-1.186-0.39s-0.429-0.629-0.429-1.109c0-1.027,0.821-1.565,2.463-1.615l0.863-0.028v-0.315
			c0-0.399-0.086-0.694-0.258-0.884c-0.171-0.19-0.445-0.286-0.823-0.286c-0.424,0-0.903,0.13-1.438,0.39l-0.236-0.589
			c0.251-0.136,0.525-0.243,0.823-0.32c0.299-0.077,0.598-0.116,0.898-0.116c0.605,0,1.055,0.134,1.348,0.403
			c0.292,0.269,0.438,0.701,0.438,1.294v3.471H447.881z M446.142,72.652c0.479,0,0.855-0.131,1.13-0.394
			c0.273-0.263,0.41-0.631,0.41-1.104v-0.459l-0.771,0.033c-0.612,0.021-1.054,0.117-1.324,0.285
			c-0.271,0.169-0.406,0.431-0.406,0.787c0,0.278,0.085,0.49,0.253,0.636C445.603,72.58,445.838,72.652,446.142,72.652z"/>
		<path d="M456.521,73.195v-3.308c0-0.405-0.086-0.709-0.26-0.912c-0.173-0.203-0.442-0.304-0.807-0.304
			c-0.479,0-0.834,0.138-1.062,0.413c-0.229,0.275-0.344,0.699-0.344,1.271v2.839h-0.771v-3.308c0-0.405-0.086-0.709-0.26-0.912
			c-0.173-0.203-0.443-0.304-0.812-0.304c-0.482,0-0.836,0.145-1.061,0.434c-0.224,0.289-0.336,0.763-0.336,1.422v2.668h-0.771
			V68.11h0.627l0.125,0.696h0.037c0.146-0.248,0.351-0.441,0.614-0.58c0.265-0.139,0.561-0.208,0.889-0.208
			c0.795,0,1.314,0.288,1.56,0.863h0.037c0.151-0.266,0.371-0.476,0.658-0.631c0.288-0.155,0.615-0.232,0.983-0.232
			c0.576,0,1.007,0.147,1.293,0.443s0.429,0.768,0.429,1.417v3.317H456.521z"/>
		<path d="M461.025,73.288c-0.752,0-1.345-0.229-1.779-0.687c-0.435-0.458-0.652-1.094-0.652-1.907c0-0.819,0.202-1.471,0.605-1.953
			c0.404-0.482,0.946-0.724,1.627-0.724c0.637,0,1.141,0.209,1.512,0.628c0.372,0.419,0.558,0.972,0.558,1.659v0.487h-3.503
			c0.015,0.597,0.166,1.05,0.452,1.359c0.286,0.31,0.688,0.464,1.208,0.464c0.548,0,1.089-0.114,1.624-0.343v0.687
			c-0.271,0.118-0.529,0.202-0.772,0.253C461.662,73.263,461.369,73.288,461.025,73.288z M460.816,68.662
			c-0.408,0-0.733,0.133-0.977,0.399c-0.243,0.266-0.386,0.634-0.429,1.104h2.658c0-0.485-0.108-0.857-0.325-1.116
			C461.528,68.792,461.219,68.662,460.816,68.662z"/>
		<path d="M467.688,73.195v-3.29c0-0.415-0.094-0.724-0.282-0.928c-0.189-0.205-0.484-0.307-0.887-0.307
			c-0.532,0-0.922,0.144-1.169,0.432s-0.371,0.763-0.371,1.424v2.668h-0.771V68.11h0.627l0.125,0.696h0.037
			c0.157-0.25,0.379-0.445,0.663-0.583c0.285-0.137,0.602-0.206,0.951-0.206c0.612,0,1.073,0.147,1.383,0.443
			s0.464,0.768,0.464,1.417v3.317H467.688z"/>
		<path d="M473.32,71.808c0,0.473-0.176,0.838-0.528,1.095c-0.354,0.257-0.848,0.385-1.485,0.385c-0.674,0-1.2-0.107-1.577-0.32
			v-0.714c0.244,0.124,0.506,0.221,0.786,0.292s0.55,0.106,0.81,0.106c0.402,0,0.712-0.064,0.928-0.192
			c0.217-0.128,0.325-0.324,0.325-0.587c0-0.198-0.086-0.367-0.258-0.508c-0.171-0.141-0.506-0.307-1.004-0.499
			c-0.474-0.176-0.81-0.33-1.01-0.462c-0.199-0.131-0.348-0.28-0.445-0.447c-0.098-0.167-0.146-0.367-0.146-0.599
			c0-0.415,0.168-0.742,0.505-0.981c0.338-0.24,0.8-0.359,1.388-0.359c0.548,0,1.083,0.111,1.605,0.334l-0.273,0.626
			c-0.511-0.21-0.974-0.316-1.388-0.316c-0.365,0-0.641,0.058-0.826,0.172s-0.278,0.272-0.278,0.473
			c0,0.136,0.035,0.252,0.104,0.348s0.182,0.187,0.337,0.274c0.154,0.086,0.451,0.211,0.891,0.375
			c0.603,0.22,1.011,0.441,1.223,0.664S473.32,71.471,473.32,71.808z"/>
		<path d="M476.605,73.288c-0.736,0-1.306-0.227-1.71-0.68c-0.403-0.453-0.605-1.094-0.605-1.923c0-0.851,0.205-1.508,0.615-1.972
			s0.993-0.696,1.751-0.696c0.245,0,0.489,0.026,0.733,0.079c0.244,0.053,0.437,0.115,0.575,0.186l-0.236,0.654
			c-0.17-0.068-0.355-0.125-0.557-0.169s-0.379-0.067-0.534-0.067c-1.033,0-1.549,0.659-1.549,1.977
			c0,0.625,0.126,1.104,0.378,1.438s0.625,0.501,1.12,0.501c0.424,0,0.858-0.091,1.304-0.273v0.682
			C477.551,73.2,477.122,73.288,476.605,73.288z"/>
		<path d="M482.577,73.195v-3.29c0-0.415-0.094-0.724-0.282-0.928c-0.189-0.205-0.484-0.307-0.887-0.307
			c-0.535,0-0.926,0.146-1.171,0.437c-0.246,0.291-0.369,0.767-0.369,1.429v2.659h-0.771v-7.219h0.771v2.185
			c0,0.263-0.013,0.481-0.037,0.654h0.046c0.152-0.244,0.367-0.437,0.647-0.578s0.6-0.211,0.958-0.211
			c0.622,0,1.088,0.147,1.399,0.443c0.311,0.295,0.466,0.765,0.466,1.408v3.317H482.577z"/>
		<path d="M488.057,73.195l-0.152-0.724h-0.037c-0.254,0.318-0.507,0.534-0.759,0.647s-0.567,0.169-0.944,0.169
			c-0.504,0-0.899-0.13-1.186-0.39s-0.429-0.629-0.429-1.109c0-1.027,0.821-1.565,2.463-1.615l0.863-0.028v-0.315
			c0-0.399-0.086-0.694-0.258-0.884c-0.171-0.19-0.445-0.286-0.823-0.286c-0.424,0-0.903,0.13-1.438,0.39l-0.236-0.589
			c0.251-0.136,0.525-0.243,0.823-0.32c0.299-0.077,0.598-0.116,0.898-0.116c0.605,0,1.055,0.134,1.348,0.403
			c0.292,0.269,0.438,0.701,0.438,1.294v3.471H488.057z M486.317,72.652c0.479,0,0.855-0.131,1.13-0.394
			c0.273-0.263,0.41-0.631,0.41-1.104v-0.459l-0.771,0.033c-0.612,0.021-1.054,0.117-1.324,0.285
			c-0.271,0.169-0.406,0.431-0.406,0.787c0,0.278,0.085,0.49,0.253,0.636C485.778,72.58,486.014,72.652,486.317,72.652z"/>
		<path d="M490.984,73.195h-0.771v-7.219h0.771V73.195z"/>
		<path d="M494.766,73.288c-0.752,0-1.345-0.229-1.779-0.687c-0.435-0.458-0.652-1.094-0.652-1.907c0-0.819,0.202-1.471,0.605-1.953
			c0.404-0.482,0.946-0.724,1.627-0.724c0.637,0,1.141,0.209,1.512,0.628c0.372,0.419,0.558,0.972,0.558,1.659v0.487h-3.503
			c0.015,0.597,0.166,1.05,0.452,1.359c0.286,0.31,0.688,0.464,1.208,0.464c0.548,0,1.089-0.114,1.624-0.343v0.687
			c-0.271,0.118-0.529,0.202-0.772,0.253C495.402,73.263,495.109,73.288,494.766,73.288z M494.557,68.662
			c-0.408,0-0.733,0.133-0.977,0.399c-0.243,0.266-0.386,0.634-0.429,1.104h2.658c0-0.485-0.108-0.857-0.325-1.116
			C495.269,68.792,494.959,68.662,494.557,68.662z"/>
	</g>
	<g>
		<path d="M451.521,92.2h-0.928l-2.473-3.29l-0.71,0.631V92.2h-0.789v-6.783h0.789v3.364l3.076-3.364h0.933l-2.729,2.946
			L451.521,92.2z"/>
		<path d="M454.486,92.292c-0.752,0-1.345-0.229-1.779-0.687c-0.435-0.458-0.652-1.094-0.652-1.907c0-0.819,0.202-1.471,0.605-1.953
			c0.404-0.482,0.946-0.724,1.627-0.724c0.637,0,1.141,0.209,1.512,0.628c0.372,0.419,0.558,0.972,0.558,1.659v0.487h-3.503
			c0.015,0.597,0.166,1.05,0.452,1.359c0.286,0.31,0.688,0.464,1.208,0.464c0.548,0,1.089-0.114,1.624-0.343v0.687
			c-0.271,0.118-0.529,0.202-0.772,0.253C455.123,92.267,454.83,92.292,454.486,92.292z M454.277,87.667
			c-0.408,0-0.733,0.133-0.977,0.399c-0.243,0.266-0.386,0.634-0.429,1.104h2.658c0-0.485-0.108-0.857-0.325-1.116
			C454.989,87.796,454.68,87.667,454.277,87.667z"/>
		<path d="M458.439,92.2h-0.771V84.98h0.771V92.2z"/>
		<path d="M462.438,87.031c0.668,0,1.188,0.228,1.557,0.684c0.37,0.457,0.555,1.102,0.555,1.937c0,0.835-0.187,1.484-0.56,1.946
			c-0.372,0.463-0.89,0.694-1.552,0.694c-0.331,0-0.633-0.061-0.907-0.183c-0.273-0.122-0.503-0.31-0.688-0.564h-0.056l-0.162,0.654
			h-0.553V84.98h0.771v1.753c0,0.393-0.013,0.746-0.037,1.058h0.037C461.201,87.285,461.733,87.031,462.438,87.031z M462.327,87.676
			c-0.525,0-0.904,0.151-1.137,0.453c-0.231,0.302-0.348,0.81-0.348,1.524c0,0.715,0.119,1.226,0.357,1.534s0.62,0.461,1.146,0.461
			c0.474,0,0.826-0.172,1.058-0.517c0.232-0.345,0.349-0.841,0.349-1.487c0-0.662-0.116-1.155-0.349-1.48
			C463.172,87.838,462.812,87.676,462.327,87.676z"/>
		<path d="M468.044,92.292c-0.752,0-1.345-0.229-1.779-0.687c-0.435-0.458-0.652-1.094-0.652-1.907c0-0.819,0.202-1.471,0.605-1.953
			c0.404-0.482,0.946-0.724,1.627-0.724c0.637,0,1.141,0.209,1.512,0.628c0.372,0.419,0.558,0.972,0.558,1.659v0.487h-3.503
			c0.015,0.597,0.166,1.05,0.452,1.359c0.286,0.31,0.688,0.464,1.208,0.464c0.548,0,1.089-0.114,1.624-0.343v0.687
			c-0.271,0.118-0.529,0.202-0.772,0.253C468.681,92.267,468.388,92.292,468.044,92.292z M467.835,87.667
			c-0.408,0-0.733,0.133-0.977,0.399c-0.243,0.266-0.386,0.634-0.429,1.104h2.658c0-0.485-0.108-0.857-0.325-1.116
			C468.547,87.796,468.237,87.667,467.835,87.667z"/>
		<path d="M473.547,87.022c0.226,0,0.428,0.019,0.607,0.056l-0.106,0.714c-0.211-0.046-0.396-0.07-0.557-0.07
			c-0.412,0-0.764,0.167-1.056,0.501s-0.438,0.75-0.438,1.248V92.2h-0.771v-5.085h0.636l0.088,0.942h0.037
			c0.189-0.331,0.416-0.586,0.683-0.766C472.936,87.111,473.228,87.022,473.547,87.022z"/>
		<path d="M481.963,89.652c0,0.829-0.209,1.477-0.627,1.942c-0.417,0.465-0.994,0.698-1.73,0.698c-0.454,0-0.858-0.107-1.211-0.32
			s-0.625-0.52-0.816-0.918s-0.288-0.866-0.288-1.401c0-0.829,0.208-1.475,0.622-1.937s0.99-0.693,1.726-0.693
			c0.712,0,1.277,0.236,1.696,0.709C481.753,88.205,481.963,88.845,481.963,89.652z M478.089,89.652c0,0.65,0.13,1.145,0.39,1.485
			s0.642,0.51,1.146,0.51s0.887-0.169,1.148-0.508c0.262-0.339,0.393-0.834,0.393-1.487c0-0.646-0.131-1.137-0.393-1.473
			c-0.262-0.335-0.647-0.503-1.157-0.503c-0.505,0-0.885,0.166-1.142,0.497S478.089,88.997,478.089,89.652z"/>
		<path d="M486.773,91.518h-0.041c-0.356,0.517-0.888,0.775-1.597,0.775c-0.665,0-1.182-0.228-1.552-0.682
			c-0.369-0.455-0.555-1.101-0.555-1.939c0-0.838,0.186-1.489,0.558-1.953c0.371-0.464,0.888-0.696,1.549-0.696
			c0.69,0,1.219,0.25,1.587,0.751h0.061l-0.032-0.367l-0.019-0.357V84.98h0.77V92.2h-0.626L486.773,91.518z M485.233,91.647
			c0.526,0,0.907-0.143,1.144-0.429c0.237-0.286,0.355-0.748,0.355-1.385v-0.163c0-0.721-0.12-1.235-0.359-1.542
			c-0.24-0.308-0.623-0.462-1.148-0.462c-0.452,0-0.798,0.176-1.037,0.527c-0.24,0.351-0.359,0.847-0.359,1.487
			c0,0.65,0.118,1.14,0.356,1.471C484.423,91.482,484.772,91.647,485.233,91.647z"/>
		<path d="M491.284,92.292c-0.752,0-1.345-0.229-1.779-0.687c-0.435-0.458-0.652-1.094-0.652-1.907c0-0.819,0.202-1.471,0.605-1.953
			c0.404-0.482,0.946-0.724,1.627-0.724c0.637,0,1.141,0.209,1.512,0.628c0.372,0.419,0.558,0.972,0.558,1.659v0.487h-3.503
			c0.015,0.597,0.166,1.05,0.452,1.359c0.286,0.31,0.688,0.464,1.208,0.464c0.548,0,1.089-0.114,1.624-0.343v0.687
			c-0.271,0.118-0.529,0.202-0.772,0.253C491.921,92.267,491.628,92.292,491.284,92.292z M491.075,87.667
			c-0.408,0-0.733,0.133-0.977,0.399c-0.243,0.266-0.386,0.634-0.429,1.104h2.658c0-0.485-0.108-0.857-0.325-1.116
			C491.787,87.796,491.478,87.667,491.075,87.667z"/>
		<path d="M496.787,87.022c0.226,0,0.428,0.019,0.607,0.056l-0.106,0.714c-0.211-0.046-0.396-0.07-0.557-0.07
			c-0.412,0-0.764,0.167-1.056,0.501s-0.438,0.75-0.438,1.248V92.2h-0.771v-5.085h0.636l0.088,0.942h0.037
			c0.189-0.331,0.416-0.586,0.683-0.766C496.176,87.111,496.468,87.022,496.787,87.022z"/>
		<path d="M433.422,103.602l-0.845-2.157h-2.719l-0.835,2.157h-0.798l2.682-6.811h0.664l2.667,6.811H433.422z M432.332,100.735
			l-0.789-2.102c-0.103-0.266-0.207-0.592-0.315-0.979c-0.068,0.297-0.166,0.624-0.292,0.979l-0.799,2.102H432.332z"/>
		<path d="M435.825,103.602h-0.771v-7.219h0.771V103.602z"/>
		<path d="M439.606,103.695c-0.752,0-1.345-0.229-1.779-0.687c-0.435-0.458-0.652-1.094-0.652-1.907
			c0-0.819,0.202-1.471,0.605-1.953c0.404-0.482,0.946-0.724,1.627-0.724c0.637,0,1.141,0.209,1.512,0.628
			c0.372,0.419,0.558,0.972,0.558,1.659v0.487h-3.503c0.015,0.597,0.166,1.05,0.452,1.359c0.286,0.31,0.688,0.464,1.208,0.464
			c0.548,0,1.089-0.114,1.624-0.343v0.687c-0.271,0.118-0.529,0.202-0.772,0.253C440.243,103.669,439.95,103.695,439.606,103.695z
			 M439.397,99.069c-0.408,0-0.733,0.133-0.977,0.399c-0.243,0.266-0.386,0.634-0.429,1.104h2.658c0-0.485-0.108-0.857-0.325-1.116
			C440.109,99.198,439.8,99.069,439.397,99.069z"/>
		<path d="M443.513,98.517v3.299c0,0.415,0.095,0.724,0.283,0.928s0.484,0.306,0.887,0.306c0.531,0,0.921-0.145,1.167-0.436
			c0.245-0.291,0.368-0.766,0.368-1.424v-2.672h0.771v5.085h-0.636l-0.111-0.682h-0.042c-0.157,0.25-0.376,0.442-0.656,0.575
			c-0.28,0.133-0.6,0.2-0.958,0.2c-0.619,0-1.082-0.147-1.39-0.441c-0.308-0.293-0.462-0.764-0.462-1.41v-3.327H443.513z"/>
		<path d="M453.011,101.055c0,0.829-0.209,1.477-0.627,1.942c-0.417,0.465-0.994,0.698-1.73,0.698c-0.454,0-0.858-0.107-1.211-0.32
			s-0.625-0.52-0.816-0.918s-0.288-0.866-0.288-1.401c0-0.829,0.208-1.475,0.622-1.937s0.99-0.693,1.726-0.693
			c0.712,0,1.277,0.236,1.696,0.709C452.801,99.607,453.011,100.248,453.011,101.055z M449.137,101.055
			c0,0.65,0.13,1.145,0.39,1.485s0.642,0.51,1.146,0.51s0.887-0.169,1.148-0.508c0.262-0.339,0.393-0.834,0.393-1.487
			c0-0.646-0.131-1.137-0.393-1.473c-0.262-0.335-0.647-0.503-1.157-0.503c-0.505,0-0.885,0.166-1.142,0.497
			S449.137,100.399,449.137,101.055z"/>
		<path d="M456.682,98.424c0.226,0,0.428,0.019,0.607,0.056l-0.106,0.714c-0.211-0.046-0.396-0.07-0.557-0.07
			c-0.412,0-0.764,0.167-1.056,0.501s-0.438,0.75-0.438,1.248v2.728h-0.771v-5.085h0.636l0.088,0.942h0.037
			c0.189-0.331,0.416-0.586,0.683-0.766C456.07,98.514,456.362,98.424,456.682,98.424z"/>
		<path d="M462.629,101.055c0,0.829-0.209,1.477-0.627,1.942c-0.417,0.465-0.994,0.698-1.73,0.698c-0.454,0-0.858-0.107-1.211-0.32
			s-0.625-0.52-0.816-0.918s-0.288-0.866-0.288-1.401c0-0.829,0.208-1.475,0.622-1.937s0.99-0.693,1.726-0.693
			c0.712,0,1.277,0.236,1.696,0.709C462.419,99.607,462.629,100.248,462.629,101.055z M458.755,101.055
			c0,0.65,0.13,1.145,0.39,1.485s0.642,0.51,1.146,0.51s0.887-0.169,1.148-0.508c0.262-0.339,0.393-0.834,0.393-1.487
			c0-0.646-0.131-1.137-0.393-1.473c-0.262-0.335-0.647-0.503-1.157-0.503c-0.505,0-0.885,0.166-1.142,0.497
			S458.755,100.399,458.755,101.055z"/>
		<path d="M467.458,103.602v-3.29c0-0.415-0.094-0.724-0.282-0.928c-0.189-0.205-0.484-0.307-0.887-0.307
			c-0.532,0-0.922,0.144-1.169,0.432s-0.371,0.763-0.371,1.424v2.668h-0.771v-5.085h0.627l0.125,0.696h0.037
			c0.157-0.25,0.379-0.445,0.663-0.583c0.285-0.137,0.602-0.206,0.951-0.206c0.612,0,1.073,0.147,1.383,0.443
			s0.464,0.768,0.464,1.417v3.317H467.458z"/>
		<path d="M473.092,102.215c0,0.473-0.176,0.838-0.528,1.095c-0.354,0.257-0.848,0.385-1.485,0.385c-0.674,0-1.2-0.107-1.577-0.32
			v-0.714c0.244,0.124,0.506,0.221,0.786,0.292s0.55,0.106,0.81,0.106c0.402,0,0.712-0.064,0.928-0.192
			c0.217-0.128,0.325-0.324,0.325-0.587c0-0.198-0.086-0.367-0.258-0.508c-0.171-0.141-0.506-0.307-1.004-0.499
			c-0.474-0.176-0.81-0.33-1.01-0.462c-0.199-0.131-0.348-0.28-0.445-0.447c-0.098-0.167-0.146-0.367-0.146-0.599
			c0-0.415,0.168-0.742,0.505-0.981c0.338-0.24,0.8-0.359,1.388-0.359c0.548,0,1.083,0.111,1.605,0.334l-0.273,0.626
			c-0.511-0.21-0.974-0.316-1.388-0.316c-0.365,0-0.641,0.058-0.826,0.172s-0.278,0.272-0.278,0.473
			c0,0.136,0.035,0.252,0.104,0.348s0.182,0.187,0.337,0.274c0.154,0.086,0.451,0.211,0.891,0.375
			c0.603,0.22,1.011,0.441,1.223,0.664S473.092,101.877,473.092,102.215z"/>
		<path d="M476.376,103.695c-0.736,0-1.306-0.227-1.71-0.68c-0.403-0.453-0.605-1.094-0.605-1.923c0-0.851,0.205-1.508,0.615-1.972
			s0.993-0.696,1.751-0.696c0.245,0,0.489,0.026,0.733,0.079c0.244,0.053,0.437,0.115,0.575,0.186l-0.236,0.654
			c-0.17-0.068-0.355-0.125-0.557-0.169s-0.379-0.067-0.534-0.067c-1.033,0-1.549,0.659-1.549,1.977
			c0,0.625,0.126,1.104,0.378,1.438s0.625,0.501,1.12,0.501c0.424,0,0.858-0.091,1.304-0.273v0.682
			C477.321,103.607,476.893,103.695,476.376,103.695z"/>
		<path d="M482.348,103.602v-3.29c0-0.415-0.094-0.724-0.282-0.928c-0.189-0.205-0.484-0.307-0.887-0.307
			c-0.535,0-0.926,0.146-1.171,0.437c-0.246,0.291-0.369,0.767-0.369,1.429v2.659h-0.771v-7.219h0.771v2.185
			c0,0.263-0.013,0.481-0.037,0.654h0.046c0.152-0.244,0.367-0.437,0.647-0.578s0.6-0.211,0.958-0.211
			c0.622,0,1.088,0.147,1.399,0.443c0.311,0.295,0.466,0.765,0.466,1.408v3.317H482.348z"/>
		<path d="M484.636,97.139c0-0.177,0.043-0.306,0.13-0.388c0.086-0.082,0.194-0.123,0.324-0.123c0.124,0,0.23,0.042,0.32,0.125
			s0.135,0.212,0.135,0.385c0,0.173-0.045,0.302-0.135,0.387s-0.196,0.127-0.32,0.127c-0.13,0-0.238-0.042-0.324-0.127
			C484.679,97.441,484.636,97.312,484.636,97.139z M485.471,103.602H484.7v-5.085h0.771V103.602z"/>
		<path d="M489.136,103.695c-0.736,0-1.306-0.227-1.71-0.68c-0.403-0.453-0.605-1.094-0.605-1.923c0-0.851,0.205-1.508,0.615-1.972
			s0.993-0.696,1.751-0.696c0.245,0,0.489,0.026,0.733,0.079c0.244,0.053,0.437,0.115,0.575,0.186l-0.236,0.654
			c-0.17-0.068-0.355-0.125-0.557-0.169s-0.379-0.067-0.534-0.067c-1.033,0-1.549,0.659-1.549,1.977
			c0,0.625,0.126,1.104,0.378,1.438s0.625,0.501,1.12,0.501c0.424,0,0.858-0.091,1.304-0.273v0.682
			C490.081,103.607,489.652,103.695,489.136,103.695z"/>
		<path d="M495.106,103.602v-3.29c0-0.415-0.094-0.724-0.282-0.928c-0.189-0.205-0.484-0.307-0.887-0.307
			c-0.535,0-0.926,0.146-1.171,0.437c-0.246,0.291-0.369,0.767-0.369,1.429v2.659h-0.771v-7.219h0.771v2.185
			c0,0.263-0.013,0.481-0.037,0.654h0.046c0.152-0.244,0.367-0.437,0.647-0.578s0.6-0.211,0.958-0.211
			c0.622,0,1.088,0.147,1.399,0.443c0.311,0.295,0.466,0.765,0.466,1.408v3.317H495.106z"/>
		<path d="M499.102,103.059c0.136,0,0.268-0.01,0.395-0.03c0.127-0.02,0.228-0.041,0.302-0.062v0.589
			c-0.084,0.04-0.207,0.073-0.369,0.1s-0.309,0.04-0.438,0.04c-0.983,0-1.476-0.518-1.476-1.554v-3.025h-0.729v-0.371l0.729-0.32
			l0.325-1.086h0.445v1.179h1.476v0.598h-1.476v2.993c0,0.306,0.072,0.542,0.218,0.706
			C498.648,102.977,498.848,103.059,499.102,103.059z"/>
	</g>
	<g>
		<path d="M449.818,136.85c0,0.597-0.217,1.062-0.65,1.396c-0.433,0.334-1.021,0.501-1.763,0.501c-0.805,0-1.423-0.104-1.855-0.311
			v-0.761c0.278,0.118,0.581,0.21,0.909,0.278c0.328,0.068,0.652,0.102,0.975,0.102c0.525,0,0.921-0.1,1.188-0.299
			c0.266-0.199,0.398-0.477,0.398-0.833c0-0.235-0.047-0.428-0.141-0.578c-0.095-0.15-0.253-0.289-0.474-0.416
			c-0.222-0.126-0.558-0.271-1.009-0.431c-0.632-0.226-1.082-0.494-1.353-0.803c-0.271-0.31-0.406-0.713-0.406-1.211
			c0-0.523,0.196-0.939,0.589-1.248c0.393-0.31,0.913-0.464,1.56-0.464c0.674,0,1.294,0.124,1.86,0.372l-0.246,0.687
			c-0.56-0.235-1.104-0.353-1.633-0.353c-0.418,0-0.744,0.089-0.979,0.269c-0.235,0.179-0.353,0.428-0.353,0.747
			c0,0.235,0.043,0.427,0.13,0.578c0.087,0.15,0.232,0.288,0.438,0.413c0.206,0.125,0.521,0.264,0.944,0.416
			c0.711,0.253,1.201,0.526,1.469,0.816C449.685,136.008,449.818,136.385,449.818,136.85z"/>
		<path d="M454.216,138.654l-0.152-0.724h-0.037c-0.254,0.318-0.507,0.534-0.759,0.647s-0.567,0.169-0.944,0.169
			c-0.504,0-0.899-0.13-1.186-0.39s-0.429-0.629-0.429-1.109c0-1.027,0.821-1.565,2.463-1.615l0.863-0.028v-0.315
			c0-0.399-0.086-0.694-0.258-0.884c-0.171-0.19-0.445-0.286-0.823-0.286c-0.424,0-0.903,0.13-1.438,0.39l-0.236-0.589
			c0.251-0.136,0.525-0.243,0.823-0.32c0.299-0.077,0.598-0.116,0.898-0.116c0.605,0,1.055,0.134,1.348,0.403
			c0.292,0.269,0.438,0.701,0.438,1.294v3.471H454.216z M452.477,138.111c0.479,0,0.855-0.131,1.13-0.394
			c0.273-0.263,0.41-0.631,0.41-1.104v-0.459l-0.771,0.033c-0.612,0.021-1.054,0.117-1.324,0.285
			c-0.271,0.169-0.406,0.431-0.406,0.787c0,0.278,0.085,0.49,0.253,0.636C451.938,138.039,452.173,138.111,452.477,138.111z"/>
		<path d="M457.098,133.569v3.299c0,0.415,0.095,0.724,0.283,0.928s0.484,0.306,0.887,0.306c0.531,0,0.921-0.145,1.167-0.436
			c0.245-0.291,0.368-0.766,0.368-1.424v-2.672h0.771v5.085h-0.636l-0.111-0.682h-0.042c-0.157,0.25-0.376,0.442-0.656,0.575
			c-0.28,0.133-0.6,0.2-0.958,0.2c-0.619,0-1.082-0.147-1.39-0.441c-0.308-0.293-0.462-0.764-0.462-1.41v-3.327H457.098z"/>
		<path d="M466.368,133.569v0.487l-0.942,0.111c0.087,0.108,0.164,0.25,0.232,0.425s0.103,0.372,0.103,0.591
			c0,0.498-0.171,0.896-0.511,1.192c-0.341,0.297-0.808,0.446-1.401,0.446c-0.151,0-0.294-0.013-0.427-0.037
			c-0.328,0.173-0.492,0.391-0.492,0.654c0,0.14,0.058,0.242,0.172,0.309c0.114,0.067,0.311,0.1,0.59,0.1h0.899
			c0.551,0,0.974,0.116,1.27,0.348c0.295,0.232,0.442,0.569,0.442,1.012c0,0.563-0.226,0.992-0.677,1.288
			c-0.452,0.295-1.11,0.443-1.977,0.443c-0.665,0-1.178-0.124-1.538-0.371s-0.541-0.597-0.541-1.049c0-0.309,0.1-0.577,0.297-0.802
			c0.198-0.226,0.477-0.379,0.836-0.459c-0.13-0.059-0.239-0.15-0.327-0.274c-0.089-0.124-0.133-0.268-0.133-0.432
			c0-0.186,0.05-0.348,0.148-0.487c0.1-0.139,0.256-0.274,0.469-0.404c-0.263-0.108-0.478-0.292-0.643-0.552
			s-0.248-0.557-0.248-0.891c0-0.557,0.167-0.986,0.501-1.288s0.808-0.452,1.42-0.452c0.266,0,0.506,0.031,0.719,0.093H466.368z
			 M462.312,139.508c0,0.275,0.116,0.484,0.349,0.626c0.231,0.142,0.564,0.213,0.997,0.213c0.646,0,1.125-0.097,1.437-0.29
			c0.311-0.193,0.466-0.455,0.466-0.786c0-0.275-0.085-0.466-0.255-0.573c-0.17-0.106-0.49-0.16-0.961-0.16h-0.923
			c-0.35,0-0.622,0.083-0.816,0.251C462.41,138.956,462.312,139.195,462.312,139.508z M462.73,135.198
			c0,0.355,0.101,0.625,0.302,0.807c0.201,0.183,0.48,0.274,0.84,0.274c0.751,0,1.127-0.365,1.127-1.095
			c0-0.764-0.38-1.146-1.141-1.146c-0.362,0-0.641,0.098-0.836,0.292C462.828,134.525,462.73,134.814,462.73,135.198z"/>
		<path d="M470.691,137.267c0,0.473-0.176,0.838-0.528,1.095c-0.354,0.257-0.848,0.385-1.485,0.385c-0.674,0-1.2-0.107-1.577-0.32
			v-0.714c0.244,0.124,0.506,0.221,0.786,0.292s0.55,0.106,0.81,0.106c0.402,0,0.712-0.064,0.928-0.192
			c0.217-0.128,0.325-0.324,0.325-0.587c0-0.198-0.086-0.367-0.258-0.508c-0.171-0.141-0.506-0.307-1.004-0.499
			c-0.474-0.176-0.81-0.33-1.01-0.462c-0.199-0.131-0.348-0.28-0.445-0.447c-0.098-0.167-0.146-0.367-0.146-0.599
			c0-0.415,0.168-0.742,0.505-0.981c0.338-0.24,0.8-0.359,1.388-0.359c0.548,0,1.083,0.111,1.605,0.334l-0.273,0.626
			c-0.511-0.21-0.974-0.316-1.388-0.316c-0.365,0-0.641,0.058-0.826,0.172s-0.278,0.272-0.278,0.473
			c0,0.136,0.035,0.252,0.104,0.348s0.182,0.187,0.337,0.274c0.154,0.086,0.451,0.211,0.891,0.375
			c0.603,0.22,1.011,0.441,1.223,0.664S470.691,136.93,470.691,137.267z"/>
		<path d="M473.977,138.747c-0.736,0-1.306-0.227-1.71-0.68c-0.403-0.453-0.605-1.094-0.605-1.923c0-0.851,0.205-1.508,0.615-1.972
			s0.993-0.696,1.751-0.696c0.245,0,0.489,0.026,0.733,0.079c0.244,0.053,0.437,0.115,0.575,0.186l-0.236,0.654
			c-0.17-0.068-0.355-0.125-0.557-0.169s-0.379-0.067-0.534-0.067c-1.033,0-1.549,0.659-1.549,1.977
			c0,0.625,0.126,1.104,0.378,1.438s0.625,0.501,1.12,0.501c0.424,0,0.858-0.091,1.304-0.273v0.682
			C474.922,138.659,474.493,138.747,473.977,138.747z"/>
		<path d="M479.947,138.654v-3.29c0-0.415-0.094-0.724-0.282-0.928c-0.189-0.205-0.484-0.307-0.887-0.307
			c-0.535,0-0.926,0.146-1.171,0.437c-0.246,0.291-0.369,0.767-0.369,1.429v2.659h-0.771v-7.219h0.771v2.185
			c0,0.263-0.013,0.481-0.037,0.654h0.046c0.152-0.244,0.367-0.437,0.647-0.578s0.6-0.211,0.958-0.211
			c0.622,0,1.088,0.147,1.399,0.443c0.311,0.295,0.466,0.765,0.466,1.408v3.317H479.947z"/>
		<path d="M482.236,132.191c0-0.177,0.043-0.306,0.13-0.388c0.086-0.082,0.194-0.123,0.324-0.123c0.124,0,0.23,0.042,0.32,0.125
			s0.135,0.212,0.135,0.385c0,0.173-0.045,0.302-0.135,0.387s-0.196,0.127-0.32,0.127c-0.13,0-0.238-0.042-0.324-0.127
			C482.279,132.494,482.236,132.364,482.236,132.191z M483.071,138.654h-0.771v-5.085h0.771V138.654z"/>
		<path d="M486.736,138.747c-0.736,0-1.306-0.227-1.71-0.68c-0.403-0.453-0.605-1.094-0.605-1.923c0-0.851,0.205-1.508,0.615-1.972
			s0.993-0.696,1.751-0.696c0.245,0,0.489,0.026,0.733,0.079c0.244,0.053,0.437,0.115,0.575,0.186l-0.236,0.654
			c-0.17-0.068-0.355-0.125-0.557-0.169s-0.379-0.067-0.534-0.067c-1.033,0-1.549,0.659-1.549,1.977
			c0,0.625,0.126,1.104,0.378,1.438s0.625,0.501,1.12,0.501c0.424,0,0.858-0.091,1.304-0.273v0.682
			C487.682,138.659,487.253,138.747,486.736,138.747z"/>
		<path d="M492.707,138.654v-3.29c0-0.415-0.094-0.724-0.282-0.928c-0.189-0.205-0.484-0.307-0.887-0.307
			c-0.535,0-0.926,0.146-1.171,0.437c-0.246,0.291-0.369,0.767-0.369,1.429v2.659h-0.771v-7.219h0.771v2.185
			c0,0.263-0.013,0.481-0.037,0.654h0.046c0.152-0.244,0.367-0.437,0.647-0.578s0.6-0.211,0.958-0.211
			c0.622,0,1.088,0.147,1.399,0.443c0.311,0.295,0.466,0.765,0.466,1.408v3.317H492.707z"/>
		<path d="M496.702,138.111c0.136,0,0.268-0.01,0.395-0.03c0.127-0.02,0.228-0.041,0.302-0.062v0.589
			c-0.084,0.04-0.207,0.073-0.369,0.1s-0.309,0.04-0.438,0.04c-0.983,0-1.476-0.518-1.476-1.554v-3.025h-0.729v-0.371l0.729-0.32
			l0.325-1.086h0.445v1.179h1.476v0.598h-1.476v2.993c0,0.306,0.072,0.542,0.218,0.706
			C496.249,138.029,496.448,138.111,496.702,138.111z"/>
	</g>
	<g>
		<path d="M21.999,73.803h1.916c0.9,0,1.552,0.134,1.954,0.404c0.401,0.269,0.603,0.694,0.603,1.276
			c0,0.402-0.112,0.734-0.337,0.995c-0.224,0.261-0.551,0.431-0.98,0.508v0.046c1.029,0.176,1.545,0.718,1.545,1.624
			c0,0.606-0.205,1.08-0.615,1.42s-0.982,0.51-1.719,0.51h-2.366V73.803z M22.787,76.707h1.3c0.557,0,0.957-0.087,1.202-0.262
			c0.244-0.174,0.366-0.469,0.366-0.884c0-0.38-0.136-0.655-0.409-0.823c-0.271-0.169-0.705-0.253-1.299-0.253h-1.16V76.707z
			 M22.787,77.375v2.538h1.416c0.547,0,0.959-0.106,1.236-0.318s0.415-0.543,0.415-0.995c0-0.42-0.142-0.73-0.425-0.928
			c-0.283-0.198-0.713-0.297-1.292-0.297H22.787z"/>
		<path d="M28.811,80.586h-0.771v-7.219h0.771V80.586z"/>
		<path d="M33.57,80.586l-0.153-0.724H33.38c-0.253,0.318-0.507,0.534-0.759,0.647s-0.566,0.169-0.943,0.169
			c-0.505,0-0.9-0.13-1.186-0.39c-0.287-0.26-0.43-0.629-0.43-1.109c0-1.027,0.821-1.565,2.464-1.615l0.862-0.028v-0.315
			c0-0.399-0.086-0.694-0.257-0.884c-0.172-0.19-0.446-0.286-0.823-0.286c-0.424,0-0.904,0.13-1.438,0.39l-0.237-0.589
			c0.251-0.136,0.525-0.243,0.824-0.32c0.299-0.077,0.598-0.116,0.897-0.116c0.606,0,1.056,0.134,1.349,0.403
			c0.291,0.269,0.438,0.701,0.438,1.294v3.471H33.57z M31.83,80.043c0.479,0,0.856-0.131,1.13-0.394
			c0.274-0.263,0.411-0.631,0.411-1.104v-0.459l-0.771,0.033c-0.612,0.021-1.054,0.117-1.325,0.285
			c-0.27,0.169-0.405,0.431-0.405,0.787c0,0.278,0.084,0.49,0.253,0.636C31.291,79.97,31.527,80.043,31.83,80.043z"/>
		<path d="M37.37,80.043c0.136,0,0.268-0.01,0.395-0.03c0.126-0.02,0.228-0.041,0.302-0.062v0.589
			c-0.084,0.04-0.207,0.073-0.369,0.1s-0.309,0.04-0.438,0.04c-0.983,0-1.476-0.518-1.476-1.554v-3.025h-0.729v-0.371l0.729-0.32
			l0.325-1.086h0.445v1.179h1.476v0.598h-1.476v2.993c0,0.306,0.073,0.542,0.218,0.706C36.917,79.961,37.117,80.043,37.37,80.043z"
			/>
		<path d="M40.725,80.043c0.137,0,0.268-0.01,0.395-0.03c0.127-0.02,0.227-0.041,0.301-0.062v0.589
			c-0.083,0.04-0.205,0.073-0.368,0.1s-0.309,0.04-0.438,0.04c-0.983,0-1.476-0.518-1.476-1.554v-3.025H38.41v-0.371l0.728-0.32
			l0.325-1.086h0.445v1.179h1.475v0.598h-1.475v2.993c0,0.306,0.072,0.542,0.218,0.706C40.271,79.961,40.471,80.043,40.725,80.043z"
			/>
		<path d="M43.197,77.983c0.133-0.188,0.336-0.436,0.608-0.742l1.642-1.74h0.914l-2.06,2.167l2.204,2.918h-0.933l-1.796-2.403
			l-0.58,0.501v1.902h-0.761v-7.219h0.761v3.828c0,0.17-0.012,0.433-0.037,0.789H43.197z"/>
		<path d="M49.572,80.679c-0.751,0-1.344-0.229-1.779-0.687c-0.434-0.458-0.651-1.094-0.651-1.907c0-0.819,0.202-1.471,0.605-1.953
			s0.946-0.724,1.626-0.724c0.637,0,1.142,0.209,1.513,0.628c0.371,0.419,0.557,0.972,0.557,1.659v0.487h-3.503
			c0.016,0.597,0.166,1.05,0.453,1.359c0.285,0.31,0.688,0.464,1.208,0.464c0.548,0,1.089-0.114,1.624-0.343v0.687
			c-0.272,0.118-0.529,0.202-0.772,0.253C50.209,80.653,49.916,80.679,49.572,80.679z M49.363,76.053
			c-0.408,0-0.733,0.133-0.977,0.399c-0.242,0.266-0.385,0.634-0.429,1.104h2.659c0-0.485-0.109-0.857-0.325-1.116
			C50.075,76.182,49.766,76.053,49.363,76.053z"/>
		<path d="M52.69,74.123c0-0.177,0.044-0.306,0.13-0.388c0.087-0.082,0.195-0.123,0.325-0.123c0.124,0,0.229,0.042,0.319,0.125
			S53.6,73.95,53.6,74.123c0,0.173-0.045,0.302-0.135,0.387s-0.195,0.127-0.319,0.127c-0.13,0-0.238-0.042-0.325-0.127
			C52.734,74.425,52.69,74.296,52.69,74.123z M53.525,80.586h-0.77v-5.085h0.77V80.586z"/>
		<path d="M61.641,80.586v-3.308c0-0.405-0.087-0.709-0.26-0.912c-0.174-0.203-0.442-0.304-0.808-0.304
			c-0.479,0-0.833,0.138-1.062,0.413c-0.229,0.275-0.343,0.699-0.343,1.271v2.839h-0.771v-3.308c0-0.405-0.087-0.709-0.26-0.912
			s-0.444-0.304-0.812-0.304c-0.482,0-0.836,0.145-1.061,0.434s-0.336,0.763-0.336,1.422v2.668h-0.771v-5.085h0.627l0.125,0.696
			h0.037c0.146-0.248,0.351-0.441,0.615-0.58c0.264-0.139,0.561-0.208,0.889-0.208c0.795,0,1.314,0.288,1.559,0.863h0.037
			c0.151-0.266,0.371-0.476,0.658-0.631c0.289-0.155,0.616-0.232,0.984-0.232c0.575,0,1.006,0.147,1.292,0.443
			s0.429,0.768,0.429,1.417v3.317H61.641z"/>
		<path d="M67.125,80.586l-0.153-0.724h-0.037c-0.253,0.318-0.507,0.534-0.759,0.647s-0.566,0.169-0.943,0.169
			c-0.505,0-0.9-0.13-1.186-0.39c-0.287-0.26-0.43-0.629-0.43-1.109c0-1.027,0.821-1.565,2.464-1.615l0.862-0.028v-0.315
			c0-0.399-0.086-0.694-0.257-0.884c-0.172-0.19-0.446-0.286-0.823-0.286c-0.424,0-0.904,0.13-1.438,0.39l-0.237-0.589
			c0.251-0.136,0.525-0.243,0.824-0.32c0.299-0.077,0.598-0.116,0.897-0.116c0.606,0,1.056,0.134,1.349,0.403
			c0.291,0.269,0.438,0.701,0.438,1.294v3.471H67.125z M65.385,80.043c0.479,0,0.856-0.131,1.13-0.394
			c0.274-0.263,0.411-0.631,0.411-1.104v-0.459l-0.771,0.033c-0.612,0.021-1.054,0.117-1.325,0.285
			c-0.27,0.169-0.405,0.431-0.405,0.787c0,0.278,0.084,0.49,0.253,0.636C64.846,79.97,65.082,80.043,65.385,80.043z"/>
		<path d="M72.762,80.586v-3.29c0-0.415-0.094-0.724-0.283-0.928c-0.188-0.205-0.483-0.307-0.886-0.307
			c-0.532,0-0.921,0.144-1.169,0.432s-0.371,0.763-0.371,1.424v2.668h-0.771v-5.085h0.626l0.126,0.696h0.037
			c0.157-0.25,0.379-0.445,0.663-0.583c0.285-0.137,0.602-0.206,0.951-0.206c0.613,0,1.074,0.147,1.383,0.443
			s0.464,0.768,0.464,1.417v3.317H72.762z"/>
		<path d="M75.885,80.586h-0.771v-7.219h0.771V80.586z"/>
		<path d="M80.645,80.586l-0.152-0.724h-0.037c-0.254,0.318-0.507,0.534-0.759,0.647c-0.253,0.113-0.567,0.169-0.944,0.169
			c-0.504,0-0.899-0.13-1.186-0.39s-0.43-0.629-0.43-1.109c0-1.027,0.822-1.565,2.465-1.615l0.862-0.028v-0.315
			c0-0.399-0.086-0.694-0.257-0.884c-0.172-0.19-0.447-0.286-0.824-0.286c-0.424,0-0.903,0.13-1.438,0.39l-0.237-0.589
			c0.251-0.136,0.524-0.243,0.823-0.32c0.299-0.077,0.598-0.116,0.898-0.116c0.605,0,1.055,0.134,1.348,0.403
			c0.292,0.269,0.438,0.701,0.438,1.294v3.471H80.645z M78.905,80.043c0.479,0,0.856-0.131,1.13-0.394
			c0.273-0.263,0.41-0.631,0.41-1.104v-0.459l-0.77,0.033c-0.613,0.021-1.055,0.117-1.325,0.285
			c-0.271,0.169-0.405,0.431-0.405,0.787c0,0.278,0.084,0.49,0.252,0.636C78.366,79.97,78.602,80.043,78.905,80.043z"/>
		<path d="M86.965,75.501v0.487l-0.942,0.111c0.087,0.108,0.164,0.25,0.231,0.425c0.068,0.175,0.103,0.372,0.103,0.591
			c0,0.498-0.17,0.896-0.511,1.192c-0.34,0.297-0.807,0.446-1.4,0.446c-0.152,0-0.295-0.013-0.428-0.037
			c-0.328,0.173-0.491,0.391-0.491,0.654c0,0.14,0.058,0.242,0.171,0.309c0.115,0.067,0.312,0.1,0.59,0.1h0.9
			c0.551,0,0.973,0.116,1.269,0.348s0.443,0.569,0.443,1.012c0,0.563-0.226,0.992-0.678,1.288c-0.452,0.295-1.11,0.443-1.976,0.443
			c-0.666,0-1.179-0.124-1.539-0.371c-0.359-0.248-0.54-0.597-0.54-1.049c0-0.309,0.099-0.577,0.297-0.802
			c0.198-0.226,0.476-0.379,0.835-0.459c-0.13-0.059-0.238-0.15-0.327-0.274c-0.088-0.124-0.132-0.268-0.132-0.432
			c0-0.186,0.049-0.348,0.148-0.487c0.099-0.139,0.255-0.274,0.469-0.404c-0.264-0.108-0.478-0.292-0.643-0.552
			c-0.166-0.26-0.248-0.557-0.248-0.891c0-0.557,0.166-0.986,0.5-1.288s0.808-0.452,1.42-0.452c0.266,0,0.506,0.031,0.719,0.093
			H86.965z M82.909,81.439c0,0.275,0.116,0.484,0.349,0.626c0.231,0.142,0.564,0.213,0.997,0.213c0.646,0,1.125-0.097,1.436-0.29
			c0.312-0.193,0.466-0.455,0.466-0.786c0-0.275-0.084-0.466-0.254-0.573c-0.171-0.106-0.49-0.16-0.961-0.16h-0.924
			c-0.35,0-0.621,0.083-0.816,0.251C83.006,80.888,82.909,81.127,82.909,81.439z M83.326,77.129c0,0.355,0.102,0.625,0.303,0.807
			c0.2,0.183,0.48,0.274,0.84,0.274c0.751,0,1.127-0.365,1.127-1.095c0-0.764-0.381-1.146-1.142-1.146
			c-0.362,0-0.64,0.098-0.835,0.292S83.326,76.746,83.326,77.129z"/>
		<path d="M90.156,80.679c-0.752,0-1.345-0.229-1.779-0.687c-0.435-0.458-0.652-1.094-0.652-1.907c0-0.819,0.202-1.471,0.605-1.953
			c0.404-0.482,0.946-0.724,1.627-0.724c0.637,0,1.141,0.209,1.512,0.628c0.371,0.419,0.557,0.972,0.557,1.659v0.487h-3.502
			c0.016,0.597,0.166,1.05,0.452,1.359c0.286,0.31,0.688,0.464,1.208,0.464c0.548,0,1.09-0.114,1.625-0.343v0.687
			c-0.273,0.118-0.53,0.202-0.773,0.253C90.793,80.653,90.5,80.679,90.156,80.679z M89.947,76.053c-0.408,0-0.734,0.133-0.977,0.399
			c-0.242,0.266-0.386,0.634-0.43,1.104H91.2c0-0.485-0.108-0.857-0.325-1.116S90.35,76.053,89.947,76.053z"/>
		<path d="M102.289,80.586v-3.308c0-0.405-0.087-0.709-0.26-0.912c-0.174-0.203-0.442-0.304-0.808-0.304
			c-0.479,0-0.833,0.138-1.062,0.413c-0.229,0.275-0.343,0.699-0.343,1.271v2.839h-0.771v-3.308c0-0.405-0.087-0.709-0.26-0.912
			s-0.444-0.304-0.812-0.304c-0.482,0-0.836,0.145-1.061,0.434s-0.336,0.763-0.336,1.422v2.668h-0.771v-5.085h0.627l0.125,0.696
			h0.037c0.146-0.248,0.351-0.441,0.615-0.58c0.264-0.139,0.561-0.208,0.889-0.208c0.795,0,1.314,0.288,1.559,0.863h0.037
			c0.151-0.266,0.371-0.476,0.658-0.631c0.289-0.155,0.616-0.232,0.984-0.232c0.575,0,1.006,0.147,1.292,0.443
			s0.429,0.768,0.429,1.417v3.317H102.289z"/>
		<path d="M104.581,74.123c0-0.177,0.044-0.306,0.13-0.388c0.087-0.082,0.195-0.123,0.325-0.123c0.124,0,0.229,0.042,0.319,0.125
			s0.135,0.212,0.135,0.385c0,0.173-0.045,0.302-0.135,0.387s-0.195,0.127-0.319,0.127c-0.13,0-0.238-0.042-0.325-0.127
			C104.625,74.425,104.581,74.296,104.581,74.123z M105.416,80.586h-0.77v-5.085h0.77V80.586z"/>
		<path d="M108.691,80.043c0.137,0,0.268-0.01,0.395-0.03c0.127-0.02,0.228-0.041,0.302-0.062v0.589
			c-0.083,0.04-0.206,0.073-0.368,0.1c-0.163,0.026-0.309,0.04-0.439,0.04c-0.982,0-1.475-0.518-1.475-1.554v-3.025h-0.729v-0.371
			l0.729-0.32l0.324-1.086h0.445v1.179h1.476v0.598h-1.476v2.993c0,0.306,0.073,0.542,0.219,0.706
			C108.238,79.961,108.438,80.043,108.691,80.043z"/>
		<path d="M26.898,91.988h-0.928l-2.473-3.29l-0.711,0.631v2.659h-0.788v-6.783h0.788v3.364l3.076-3.364h0.934l-2.729,2.946
			L26.898,91.988z"/>
		<path d="M29.863,92.081c-0.752,0-1.345-0.229-1.779-0.687c-0.435-0.458-0.652-1.094-0.652-1.907c0-0.819,0.202-1.471,0.605-1.953
			c0.404-0.482,0.946-0.724,1.627-0.724c0.637,0,1.141,0.209,1.512,0.628c0.371,0.419,0.557,0.972,0.557,1.659v0.487H28.23
			c0.016,0.597,0.166,1.05,0.452,1.359c0.286,0.31,0.688,0.464,1.208,0.464c0.548,0,1.09-0.114,1.625-0.343v0.687
			c-0.273,0.118-0.53,0.202-0.773,0.253C30.5,92.056,30.207,92.081,29.863,92.081z M29.654,87.455c-0.408,0-0.734,0.133-0.977,0.399
			c-0.242,0.266-0.386,0.634-0.43,1.104h2.659c0-0.485-0.108-0.857-0.325-1.116S30.057,87.455,29.654,87.455z"/>
		<path d="M32.98,85.525c0-0.177,0.044-0.306,0.131-0.388c0.086-0.082,0.194-0.123,0.324-0.123c0.124,0,0.23,0.042,0.32,0.125
			s0.135,0.212,0.135,0.385c0,0.173-0.045,0.302-0.135,0.387s-0.196,0.127-0.32,0.127c-0.13,0-0.238-0.042-0.324-0.127
			C33.024,85.828,32.98,85.698,32.98,85.525z M33.816,91.988h-0.771v-5.085h0.771V91.988z"/>
		<path d="M41.932,91.988V88.68c0-0.405-0.088-0.709-0.26-0.912c-0.174-0.203-0.443-0.304-0.809-0.304
			c-0.479,0-0.833,0.138-1.062,0.413c-0.229,0.275-0.343,0.699-0.343,1.271v2.839h-0.771V88.68c0-0.405-0.086-0.709-0.26-0.912
			c-0.173-0.203-0.443-0.304-0.812-0.304c-0.482,0-0.836,0.145-1.06,0.434c-0.225,0.289-0.337,0.763-0.337,1.422v2.668h-0.771
			v-5.085h0.627l0.125,0.696h0.037c0.145-0.248,0.35-0.441,0.615-0.58c0.264-0.139,0.561-0.208,0.888-0.208
			c0.795,0,1.315,0.288,1.56,0.863h0.037c0.15-0.266,0.371-0.476,0.658-0.631c0.288-0.155,0.615-0.232,0.984-0.232
			c0.574,0,1.006,0.147,1.291,0.443c0.287,0.295,0.43,0.768,0.43,1.417v3.317H41.932z"/>
		<path d="M47.568,90.601c0,0.473-0.176,0.838-0.529,1.095c-0.352,0.257-0.848,0.385-1.484,0.385c-0.674,0-1.199-0.107-1.577-0.32
			v-0.714c0.244,0.124,0.507,0.221,0.786,0.292c0.28,0.071,0.55,0.106,0.81,0.106c0.402,0,0.712-0.064,0.929-0.192
			c0.216-0.128,0.324-0.324,0.324-0.587c0-0.198-0.086-0.367-0.258-0.508c-0.172-0.141-0.506-0.307-1.004-0.499
			c-0.474-0.176-0.811-0.33-1.01-0.462c-0.199-0.131-0.348-0.28-0.445-0.447c-0.098-0.167-0.146-0.367-0.146-0.599
			c0-0.415,0.169-0.742,0.506-0.981c0.338-0.24,0.8-0.359,1.388-0.359c0.548,0,1.083,0.111,1.605,0.334l-0.274,0.626
			c-0.51-0.21-0.973-0.316-1.387-0.316c-0.365,0-0.641,0.058-0.826,0.172s-0.277,0.272-0.277,0.473c0,0.136,0.034,0.252,0.104,0.348
			c0.07,0.096,0.182,0.187,0.336,0.274c0.155,0.086,0.452,0.211,0.892,0.375c0.603,0.22,1.011,0.441,1.222,0.664
			C47.463,89.984,47.568,90.264,47.568,90.601z"/>
		<path d="M50.854,92.081c-0.736,0-1.307-0.227-1.71-0.68s-0.605-1.094-0.605-1.923c0-0.851,0.204-1.508,0.614-1.972
			s0.994-0.696,1.752-0.696c0.244,0,0.488,0.026,0.732,0.079c0.245,0.053,0.437,0.115,0.576,0.186l-0.236,0.654
			c-0.171-0.068-0.356-0.125-0.557-0.169c-0.201-0.045-0.379-0.067-0.534-0.067c-1.033,0-1.55,0.659-1.55,1.977
			c0,0.625,0.126,1.104,0.379,1.438c0.252,0.334,0.625,0.501,1.119,0.501c0.424,0,0.859-0.091,1.305-0.273v0.682
			C51.798,91.993,51.369,92.081,50.854,92.081z"/>
		<path d="M56.824,91.988v-3.29c0-0.415-0.094-0.724-0.283-0.928c-0.188-0.205-0.483-0.307-0.886-0.307
			c-0.535,0-0.925,0.146-1.171,0.437c-0.246,0.291-0.369,0.767-0.369,1.429v2.659h-0.771v-7.219h0.771v2.185
			c0,0.263-0.013,0.481-0.037,0.654h0.047c0.15-0.244,0.367-0.437,0.646-0.578c0.28-0.141,0.6-0.211,0.958-0.211
			c0.622,0,1.089,0.147,1.399,0.443s0.466,0.765,0.466,1.408v3.317H56.824z"/>
		<path d="M61.325,92.081c-0.751,0-1.345-0.229-1.779-0.687c-0.435-0.458-0.651-1.094-0.651-1.907c0-0.819,0.201-1.471,0.605-1.953
			c0.402-0.482,0.945-0.724,1.625-0.724c0.638,0,1.143,0.209,1.514,0.628c0.371,0.419,0.557,0.972,0.557,1.659v0.487h-3.504
			c0.016,0.597,0.167,1.05,0.453,1.359c0.285,0.31,0.689,0.464,1.209,0.464c0.547,0,1.088-0.114,1.623-0.343v0.687
			c-0.271,0.118-0.529,0.202-0.771,0.253C61.961,92.056,61.668,92.081,61.325,92.081z M61.116,87.455
			c-0.408,0-0.733,0.133-0.977,0.399c-0.243,0.266-0.386,0.634-0.429,1.104h2.658c0-0.485-0.108-0.857-0.324-1.116
			C61.828,87.584,61.519,87.455,61.116,87.455z"/>
		<path d="M64.443,85.525c0-0.177,0.043-0.306,0.129-0.388c0.088-0.082,0.195-0.123,0.326-0.123c0.123,0,0.229,0.042,0.319,0.125
			s0.135,0.212,0.135,0.385c0,0.173-0.045,0.302-0.135,0.387s-0.196,0.127-0.319,0.127c-0.131,0-0.238-0.042-0.326-0.127
			C64.486,85.828,64.443,85.698,64.443,85.525z M65.278,91.988h-0.771v-5.085h0.771V91.988z"/>
		<path d="M69.277,86.82c0.668,0,1.188,0.228,1.557,0.684c0.369,0.457,0.555,1.102,0.555,1.937c0,0.835-0.187,1.484-0.559,1.946
			c-0.373,0.463-0.891,0.694-1.553,0.694c-0.33,0-0.633-0.061-0.906-0.183c-0.274-0.122-0.504-0.31-0.689-0.564h-0.056l-0.163,0.654
			h-0.552v-7.219h0.771v1.753c0,0.393-0.013,0.746-0.037,1.058h0.037C68.041,87.073,68.572,86.82,69.277,86.82z M69.166,87.464
			c-0.525,0-0.904,0.151-1.137,0.453s-0.348,0.81-0.348,1.524c0,0.715,0.119,1.226,0.357,1.534s0.619,0.461,1.146,0.461
			c0.474,0,0.826-0.172,1.058-0.517c0.232-0.345,0.349-0.841,0.349-1.487c0-0.662-0.116-1.155-0.349-1.48
			C70.011,87.627,69.652,87.464,69.166,87.464z"/>
		<path d="M74.883,92.081c-0.752,0-1.346-0.229-1.779-0.687c-0.436-0.458-0.652-1.094-0.652-1.907c0-0.819,0.201-1.471,0.605-1.953
			c0.403-0.482,0.945-0.724,1.626-0.724c0.638,0,1.142,0.209,1.513,0.628c0.371,0.419,0.557,0.972,0.557,1.659v0.487h-3.503
			c0.016,0.597,0.167,1.05,0.452,1.359c0.286,0.31,0.689,0.464,1.209,0.464c0.547,0,1.089-0.114,1.624-0.343v0.687
			c-0.272,0.118-0.53,0.202-0.772,0.253C75.519,92.056,75.226,92.081,74.883,92.081z M74.674,87.455
			c-0.408,0-0.734,0.133-0.977,0.399c-0.243,0.266-0.387,0.634-0.43,1.104h2.658c0-0.485-0.107-0.857-0.324-1.116
			S75.076,87.455,74.674,87.455z"/>
	</g>
	<g>
		<path d="M27.113,185.109l-2.302-6.013h-0.037c0.043,0.477,0.065,1.042,0.065,1.698v4.315h-0.729v-6.783h1.188l2.148,5.595h0.037
			l2.166-5.595h1.179v6.783h-0.788v-4.371c0-0.501,0.021-1.045,0.064-1.633h-0.037l-2.32,6.004H27.113z"/>
		<path d="M34.722,185.202c-0.751,0-1.345-0.229-1.779-0.687c-0.435-0.458-0.651-1.094-0.651-1.907c0-0.819,0.201-1.471,0.605-1.953
			c0.402-0.482,0.945-0.724,1.625-0.724c0.638,0,1.143,0.209,1.514,0.628c0.371,0.419,0.557,0.972,0.557,1.659v0.487h-3.504
			c0.016,0.597,0.167,1.05,0.453,1.359c0.285,0.31,0.689,0.464,1.209,0.464c0.547,0,1.088-0.114,1.623-0.343v0.687
			c-0.271,0.118-0.529,0.202-0.771,0.253C35.357,185.177,35.064,185.202,34.722,185.202z M34.513,180.576
			c-0.408,0-0.733,0.133-0.977,0.399c-0.243,0.266-0.386,0.634-0.429,1.104h2.658c0-0.485-0.108-0.857-0.324-1.116
			C35.225,180.706,34.915,180.576,34.513,180.576z"/>
		<path d="M41.385,185.109v-3.29c0-0.415-0.095-0.724-0.283-0.928c-0.189-0.205-0.484-0.307-0.887-0.307
			c-0.535,0-0.926,0.146-1.172,0.437c-0.245,0.291-0.368,0.767-0.368,1.429v2.659h-0.771v-7.219h0.771v2.185
			c0,0.263-0.013,0.481-0.037,0.654h0.046c0.152-0.244,0.367-0.437,0.647-0.578s0.6-0.211,0.958-0.211
			c0.622,0,1.088,0.147,1.398,0.443c0.312,0.295,0.467,0.765,0.467,1.408v3.317H41.385z"/>
		<path d="M44.508,185.109h-0.771v-7.219h0.771V185.109z"/>
		<path d="M46.901,182.506c0.133-0.188,0.335-0.436,0.608-0.742l1.642-1.74h0.914l-2.06,2.167l2.203,2.918h-0.932l-1.797-2.403
			l-0.579,0.501v1.902h-0.761v-7.219h0.761v3.828c0,0.17-0.013,0.433-0.037,0.789H46.901z"/>
		<path d="M55.517,182.562c0,0.829-0.208,1.477-0.626,1.942s-0.994,0.698-1.73,0.698c-0.455,0-0.859-0.107-1.211-0.32
			c-0.354-0.213-0.625-0.52-0.816-0.918c-0.192-0.399-0.288-0.866-0.288-1.401c0-0.829,0.207-1.475,0.622-1.937
			c0.414-0.462,0.989-0.693,1.726-0.693c0.712,0,1.276,0.236,1.696,0.709C55.307,181.115,55.517,181.755,55.517,182.562z
			 M51.643,182.562c0,0.65,0.13,1.145,0.39,1.485s0.642,0.51,1.146,0.51c0.505,0,0.888-0.169,1.148-0.508
			c0.262-0.339,0.393-0.834,0.393-1.487c0-0.646-0.131-1.137-0.393-1.473c-0.261-0.335-0.646-0.503-1.157-0.503
			c-0.504,0-0.884,0.166-1.142,0.497C51.771,181.413,51.643,181.906,51.643,182.562z M51.87,178.646
			c0-0.161,0.041-0.277,0.123-0.348c0.081-0.071,0.18-0.107,0.294-0.107c0.118,0,0.219,0.036,0.305,0.107
			c0.084,0.071,0.127,0.187,0.127,0.348c0,0.154-0.043,0.27-0.127,0.345c-0.086,0.076-0.187,0.114-0.305,0.114
			c-0.114,0-0.213-0.038-0.294-0.114C51.911,178.916,51.87,178.801,51.87,178.646z M53.638,178.646c0-0.161,0.041-0.277,0.123-0.348
			s0.181-0.107,0.294-0.107c0.115,0,0.215,0.036,0.3,0.107s0.128,0.187,0.128,0.348c0,0.154-0.043,0.27-0.128,0.345
			c-0.085,0.076-0.185,0.114-0.3,0.114c-0.113,0-0.212-0.038-0.294-0.114C53.679,178.916,53.638,178.801,53.638,178.646z"/>
		<path d="M59.188,179.932c0.226,0,0.428,0.019,0.607,0.056l-0.106,0.714c-0.21-0.046-0.396-0.07-0.558-0.07
			c-0.41,0-0.763,0.167-1.055,0.501c-0.293,0.334-0.438,0.75-0.438,1.248v2.728h-0.771v-5.085h0.636l0.089,0.942h0.037
			c0.188-0.331,0.416-0.586,0.682-0.766C58.576,180.021,58.869,179.932,59.188,179.932z"/>
		<path d="M63.111,185.202c-0.33,0-0.633-0.061-0.906-0.183s-0.504-0.31-0.689-0.564h-0.055c0.037,0.297,0.055,0.579,0.055,0.845
			v2.092h-0.77v-7.368h0.626l0.106,0.696h0.037c0.198-0.278,0.429-0.479,0.691-0.603c0.264-0.124,0.564-0.186,0.904-0.186
			c0.675,0,1.195,0.23,1.562,0.691c0.366,0.461,0.549,1.107,0.549,1.939c0,0.835-0.186,1.484-0.559,1.946
			C64.291,184.971,63.773,185.202,63.111,185.202z M63,180.585c-0.52,0-0.895,0.144-1.127,0.432s-0.352,0.746-0.357,1.374v0.171
			c0,0.715,0.119,1.226,0.357,1.534s0.62,0.461,1.146,0.461c0.439,0,0.783-0.178,1.032-0.533c0.249-0.356,0.374-0.846,0.374-1.471
			c0-0.634-0.125-1.12-0.374-1.459S63.452,180.585,63,180.585z"/>
		<path d="M68.717,185.202c-0.752,0-1.345-0.229-1.779-0.687c-0.435-0.458-0.652-1.094-0.652-1.907c0-0.819,0.202-1.471,0.605-1.953
			c0.404-0.482,0.946-0.724,1.627-0.724c0.637,0,1.141,0.209,1.512,0.628c0.371,0.419,0.557,0.972,0.557,1.659v0.487h-3.502
			c0.016,0.597,0.166,1.05,0.452,1.359c0.286,0.31,0.688,0.464,1.208,0.464c0.548,0,1.09-0.114,1.625-0.343v0.687
			c-0.273,0.118-0.53,0.202-0.773,0.253C69.354,185.177,69.061,185.202,68.717,185.202z M68.508,180.576
			c-0.408,0-0.734,0.133-0.977,0.399c-0.242,0.266-0.386,0.634-0.43,1.104h2.659c0-0.485-0.108-0.857-0.325-1.116
			S68.91,180.576,68.508,180.576z"/>
		<path d="M74.219,179.932c0.227,0,0.43,0.019,0.608,0.056l-0.106,0.714c-0.211-0.046-0.396-0.07-0.557-0.07
			c-0.412,0-0.764,0.167-1.056,0.501s-0.438,0.75-0.438,1.248v2.728h-0.771v-5.085h0.636l0.088,0.942h0.037
			c0.189-0.331,0.416-0.586,0.683-0.766C73.608,180.021,73.9,179.932,74.219,179.932z"/>
		<path d="M76.586,184.005l0.069,0.107c-0.081,0.31-0.196,0.669-0.348,1.079c-0.151,0.41-0.31,0.791-0.474,1.144h-0.58
			c0.084-0.322,0.176-0.719,0.276-1.192c0.101-0.474,0.171-0.853,0.211-1.137H76.586z"/>
		<path d="M27.893,196.512h-3.781v-6.783h3.781v0.701h-2.993v2.185h2.812v0.696h-2.812v2.496h2.993V196.512z"/>
		<path d="M32.76,196.512v-3.29c0-0.415-0.095-0.724-0.283-0.928c-0.189-0.205-0.484-0.307-0.887-0.307
			c-0.531,0-0.922,0.144-1.169,0.432s-0.371,0.763-0.371,1.424v2.668h-0.771v-5.085h0.627l0.125,0.696h0.037
			c0.158-0.25,0.379-0.445,0.664-0.583c0.283-0.137,0.602-0.206,0.95-0.206c0.612,0,1.073,0.147,1.383,0.443
			s0.464,0.768,0.464,1.417v3.317H32.76z"/>
		<path d="M38.572,195.83h-0.041c-0.355,0.517-0.889,0.775-1.596,0.775c-0.666,0-1.184-0.228-1.553-0.682s-0.555-1.101-0.555-1.939
			c0-0.838,0.186-1.489,0.557-1.953s0.889-0.696,1.551-0.696c0.689,0,1.219,0.25,1.586,0.751h0.061l-0.033-0.367l-0.018-0.357
			v-2.069h0.77v7.219h-0.626L38.572,195.83z M37.032,195.959c0.526,0,0.907-0.143,1.144-0.429s0.355-0.748,0.355-1.385v-0.163
			c0-0.721-0.12-1.235-0.359-1.542c-0.24-0.308-0.623-0.462-1.148-0.462c-0.452,0-0.798,0.176-1.037,0.527
			c-0.24,0.351-0.359,0.847-0.359,1.487c0,0.65,0.119,1.14,0.357,1.471C36.223,195.794,36.571,195.959,37.032,195.959z"/>
		<path d="M45.323,193.964c0,0.829-0.208,1.477-0.626,1.942s-0.994,0.698-1.73,0.698c-0.455,0-0.859-0.107-1.211-0.32
			c-0.354-0.213-0.625-0.52-0.816-0.918c-0.192-0.399-0.288-0.866-0.288-1.401c0-0.829,0.207-1.475,0.622-1.937
			c0.414-0.462,0.989-0.693,1.726-0.693c0.712,0,1.276,0.236,1.696,0.709C45.113,192.517,45.323,193.157,45.323,193.964z
			 M41.449,193.964c0,0.65,0.13,1.145,0.39,1.485s0.642,0.51,1.146,0.51c0.505,0,0.888-0.169,1.148-0.508
			c0.262-0.339,0.393-0.834,0.393-1.487c0-0.646-0.131-1.137-0.393-1.473c-0.261-0.335-0.646-0.503-1.157-0.503
			c-0.504,0-0.884,0.166-1.142,0.497C41.578,192.815,41.449,193.309,41.449,193.964z"/>
		<path d="M49.953,195.125c0,0.473-0.176,0.838-0.528,1.095c-0.353,0.257-0.848,0.385-1.485,0.385c-0.674,0-1.199-0.107-1.576-0.32
			v-0.714c0.244,0.124,0.506,0.221,0.785,0.292c0.281,0.071,0.551,0.106,0.811,0.106c0.402,0,0.711-0.064,0.928-0.192
			s0.324-0.324,0.324-0.587c0-0.198-0.086-0.367-0.257-0.508c-0.172-0.141-0.507-0.307-1.005-0.499
			c-0.473-0.176-0.81-0.33-1.009-0.462c-0.2-0.131-0.349-0.28-0.445-0.447c-0.098-0.167-0.146-0.367-0.146-0.599
			c0-0.415,0.169-0.742,0.506-0.981s0.8-0.359,1.388-0.359c0.547,0,1.082,0.111,1.605,0.334l-0.274,0.626
			c-0.511-0.21-0.973-0.316-1.388-0.316c-0.364,0-0.64,0.058-0.825,0.172s-0.278,0.272-0.278,0.473c0,0.136,0.035,0.252,0.104,0.348
			c0.07,0.096,0.182,0.187,0.337,0.274c0.155,0.086,0.452,0.211,0.892,0.375c0.603,0.22,1.01,0.441,1.222,0.664
			S49.953,194.787,49.953,195.125z"/>
		<path d="M53.572,196.604c-0.33,0-0.633-0.061-0.906-0.183s-0.504-0.31-0.689-0.564h-0.055c0.037,0.297,0.055,0.579,0.055,0.845
			v2.092h-0.77v-7.368h0.626l0.106,0.696h0.037c0.198-0.278,0.429-0.479,0.691-0.603c0.264-0.124,0.564-0.186,0.904-0.186
			c0.675,0,1.195,0.23,1.562,0.691c0.366,0.461,0.549,1.107,0.549,1.939c0,0.835-0.186,1.484-0.559,1.946
			C54.752,196.374,54.234,196.604,53.572,196.604z M53.461,191.988c-0.52,0-0.895,0.144-1.127,0.432s-0.352,0.746-0.357,1.374v0.171
			c0,0.715,0.119,1.226,0.357,1.534s0.62,0.461,1.146,0.461c0.439,0,0.783-0.178,1.032-0.533c0.249-0.356,0.374-0.846,0.374-1.471
			c0-0.634-0.125-1.12-0.374-1.459S53.913,191.988,53.461,191.988z"/>
		<path d="M59.178,196.604c-0.752,0-1.345-0.229-1.779-0.687c-0.435-0.458-0.652-1.094-0.652-1.907c0-0.819,0.202-1.471,0.605-1.953
			c0.404-0.482,0.946-0.724,1.627-0.724c0.637,0,1.141,0.209,1.512,0.628c0.371,0.419,0.557,0.972,0.557,1.659v0.487h-3.502
			c0.016,0.597,0.166,1.05,0.452,1.359c0.286,0.31,0.688,0.464,1.208,0.464c0.548,0,1.09-0.114,1.625-0.343v0.687
			c-0.273,0.118-0.53,0.202-0.773,0.253C59.814,196.579,59.521,196.604,59.178,196.604z M58.969,191.979
			c-0.408,0-0.734,0.133-0.977,0.399c-0.242,0.266-0.386,0.634-0.43,1.104h2.659c0-0.485-0.108-0.857-0.325-1.116
			S59.371,191.979,58.969,191.979z"/>
		<path d="M64.68,191.334c0.227,0,0.43,0.019,0.608,0.056l-0.106,0.714c-0.211-0.046-0.396-0.07-0.557-0.07
			c-0.412,0-0.764,0.167-1.056,0.501s-0.438,0.75-0.438,1.248v2.728H62.36v-5.085h0.636l0.088,0.942h0.037
			c0.189-0.331,0.416-0.586,0.683-0.766C64.069,191.423,64.361,191.334,64.68,191.334z"/>
		<path d="M72.721,196.512v-3.308c0-0.405-0.086-0.709-0.26-0.912c-0.173-0.203-0.441-0.304-0.807-0.304
			c-0.48,0-0.834,0.138-1.062,0.413s-0.344,0.699-0.344,1.271v2.839h-0.77v-3.308c0-0.405-0.088-0.709-0.26-0.912
			c-0.174-0.203-0.444-0.304-0.812-0.304c-0.482,0-0.836,0.145-1.061,0.434s-0.336,0.763-0.336,1.422v2.668h-0.771v-5.085h0.626
			l0.126,0.696h0.037c0.146-0.248,0.351-0.441,0.614-0.58c0.265-0.139,0.561-0.208,0.889-0.208c0.795,0,1.314,0.288,1.559,0.863
			h0.037c0.152-0.266,0.371-0.476,0.659-0.631s0.616-0.232,0.983-0.232c0.576,0,1.006,0.147,1.293,0.443
			c0.285,0.295,0.429,0.768,0.429,1.417v3.317H72.721z"/>
	</g>
	<path fill="#F2F2F2" stroke="#000000" stroke-miterlimit="10" d="M253.929,223.646c0,0-5.279,1.056-4.223,4.223
		c1.056,3.167,2.112,7.391,6.335,6.335c4.223-1.056,6.335-1.056,6.335-5.279C262.376,224.702,253.929,223.646,253.929,223.646z"/>
	<path fill="#F2F2F2" stroke="#000000" stroke-miterlimit="10" d="M260.792,233.676c0,0-5.656,0.528-4.774,3.695
		c0.882,3.167,1.763,7.391,5.29,6.335s5.29-1.056,5.29-5.279S260.792,233.676,260.792,233.676z"/>
	<path fill="#F2F2F2" stroke="#000000" stroke-miterlimit="10" d="M262.376,227.447c0,0,0-3.801,4.43-3.801
		c4.43,0,7.753,2.534,6.645,6.335s-1.108,6.335-3.323,6.335c-2.215,0-7.172-1.601-7.753-3.251
		C261.848,231.564,262.376,227.447,262.376,227.447z"/>
	<path fill="#F2F2F2" stroke="#000000" stroke-miterlimit="10" d="M238.006,239.067c0,0-3.833,2.795-1.818,4.939
		s4.42,5.132,7.408,2.727s4.677-3.185,3.117-6.563C245.152,236.791,238.006,239.067,238.006,239.067z"/>
	<path fill="#F2F2F2" stroke="#000000" stroke-miterlimit="10" d="M247.201,244.555c0,0-4.329,2.512-2.454,4.72
		c1.876,2.208,4.141,5.26,6.572,3.113c2.431-2.148,3.842-2.799,2.282-6.177C252.041,242.832,247.201,244.555,247.201,244.555z"/>
	<path fill="#F2F2F2" stroke="#000000" stroke-miterlimit="10" d="M258.463,244.377c0,0-5.083,2.861-3.088,5.018
		c1.995,2.157,4.38,5.16,7.281,2.794s4.546-3.126,2.984-6.509C264.078,242.297,258.463,244.377,258.463,244.377z"/>
	<path fill="#F2F2F2" stroke="#000000" stroke-miterlimit="10" d="M246.166,238.987c0,0-1.404-3.04,2.14-4.677
		c3.544-1.637,7.138-0.838,7.656,2.612s1.454,5.477-0.317,6.295s-6.329,1.369-7.403,0.264
		C247.265,242.476,246.166,238.987,246.166,238.987z"/>
	<path fill="#F2F2F2" stroke="#000000" stroke-miterlimit="10" d="M273.672,237.786c0,0-4.646-2.843-6.038,0.235
		s-3.51,6.939,0.352,9.057s5.43,3.568,8.332,0.432C279.219,244.374,273.672,237.786,273.672,237.786z"/>
	<path fill="#F2F2F2" stroke="#000000" stroke-miterlimit="10" d="M271.877,249.95c0,0-4.563-3.494-6.084-0.536
		c-1.521,2.958-3.768,6.7-0.423,8.339s4.654,2.851,7.556-0.285C275.827,254.332,271.877,249.95,271.877,249.95z"/>
	<path fill="#F2F2F2" stroke="#000000" stroke-miterlimit="10" d="M277.333,246.412c0,0,2.611-2.823,5.902,0.221
		s4.017,7.209,0.583,9.27s-5.175,3.944-6.82,2.422s-4.226-6.117-3.524-7.741C274.112,249.107,277.333,246.412,277.333,246.412z"/>
	<circle cx="279.796" cy="249.513" r="1.056"/>
	<circle cx="269.766" cy="254.264" r="1.056"/>
	<circle cx="262.376" cy="247.929" r="1.056"/>
	<circle cx="263.431" cy="239.483" r="1.056"/>
	<circle cx="250.762" cy="237.371" r="1.056"/>
	<circle cx="280.324" cy="253.208" r="0.528"/>
	<circle cx="272.406" cy="254.792" r="0.528"/>
	<circle cx="269.238" cy="253.736" r="0.528"/>
	<circle cx="258.68" cy="247.401" r="0.528"/>
	<circle cx="253.401" cy="240.011" r="0.528"/>
	<circle cx="271.35" cy="243.178" r="0.528"/>
	<circle cx="243.899" cy="242.122" r="0.528"/>
	<circle cx="273.461" cy="244.234" r="0.528"/>
	<circle cx="248.122" cy="248.457" r="0.528"/>
	<circle cx="269.238" cy="231.564" r="0.528"/>
	<circle cx="257.624" cy="229.453" r="0.528"/>
	<circle cx="269.238" cy="244.234" r="0.528"/>
	<circle cx="240.732" cy="242.122" r="0.528"/>
	<circle cx="250.234" cy="247.401" r="0.528"/>
	<circle cx="269.238" cy="228.397" r="0.528"/>
	<circle cx="267.127" cy="229.453" r="0.528"/>
	<circle cx="260.792" cy="238.955" r="0.528"/>
	<circle cx="250.234" cy="248.457" r="0.528"/>
	<circle cx="255.513" cy="228.397" r="0.528"/>
	<polyline fill="none" stroke="#000000" stroke-miterlimit="10" points="20.539,198.835 212.753,198.835 231.758,207.281 	"/>
	<polyline fill="none" stroke="#000000" stroke-miterlimit="10" points="20.539,94.311 212.753,94.311 243.899,115.427 	"/>
	<polyline fill="none" stroke="#000000" stroke-miterlimit="10" points="20.539,58.414 212.753,58.414 263.959,78.474 	"/>
	<polyline fill="none" stroke="#000000" stroke-miterlimit="10" points="20.539,228.397 240.204,228.397 259.208,236.843 	"/>
	<polyline fill="none" stroke="#000000" stroke-miterlimit="10" points="20.539,246.345 240.204,246.345 269.238,253.736 	"/>
	<polyline fill="none" stroke="#000000" stroke-miterlimit="10" points="496.791,52.08 323.084,52.08 301.968,63.693 	"/>
	<polyline fill="none" stroke="#000000" stroke-miterlimit="10" points="497.319,76.363 323.611,76.363 307.247,84.809 	"/>
	<polyline fill="none" stroke="#000000" stroke-miterlimit="10" points="498.375,106.981 324.667,106.981 314.637,112.26 	"/>
	<polyline fill="none" stroke="#000000" stroke-width="0.75" stroke-miterlimit="10" points="498.375,141.822 324.667,141.822 
		287.187,125.985 	"/>
	<polyline fill="none" stroke="#000000" stroke-miterlimit="10" points="499.431,309.693 325.723,309.693 307.247,332.92 	"/>
	<rect x="212.225" y="344.534" fill="#FFFFFF" width="101.356" height="6.335"/>
	<g>
		<path d="M26.837,225.532h-3.781v-6.783h3.781v0.7h-2.993v2.186h2.812v0.696h-2.812v2.496h2.993V225.532z"/>
		<path d="M28.159,219.069c0-0.177,0.044-0.306,0.13-0.388c0.087-0.082,0.195-0.123,0.325-0.123c0.124,0,0.229,0.042,0.319,0.125
			s0.135,0.212,0.135,0.385c0,0.173-0.045,0.302-0.135,0.388c-0.09,0.085-0.195,0.127-0.319,0.127c-0.13,0-0.238-0.042-0.325-0.127
			C28.203,219.371,28.159,219.242,28.159,219.069z M28.994,225.532h-0.77v-5.085h0.77V225.532z"/>
		<path d="M34.78,225.532l-0.933-2.983c-0.059-0.183-0.168-0.597-0.33-1.243H33.48c-0.123,0.541-0.231,0.959-0.324,1.253
			l-0.961,2.974h-0.891l-1.387-5.085h0.807c0.328,1.277,0.578,2.25,0.75,2.918s0.27,1.118,0.295,1.351h0.037
			c0.033-0.177,0.088-0.404,0.164-0.685s0.142-0.502,0.197-0.666l0.933-2.918h0.835l0.91,2.918c0.173,0.532,0.29,0.979,0.352,1.341
			h0.037c0.013-0.111,0.046-0.283,0.1-0.515c0.055-0.232,0.377-1.48,0.968-3.744H37.1l-1.405,5.085H34.78z"/>
		<path d="M40.167,225.625c-0.751,0-1.345-0.229-1.779-0.687s-0.651-1.094-0.651-1.907c0-0.819,0.201-1.471,0.605-1.953
			c0.402-0.482,0.945-0.724,1.625-0.724c0.638,0,1.143,0.209,1.514,0.629c0.371,0.419,0.557,0.972,0.557,1.658v0.487h-3.504
			c0.016,0.597,0.167,1.05,0.453,1.359c0.285,0.31,0.689,0.464,1.209,0.464c0.547,0,1.088-0.114,1.623-0.343v0.687
			c-0.271,0.117-0.529,0.201-0.771,0.253C40.803,225.6,40.51,225.625,40.167,225.625z M39.958,220.999
			c-0.408,0-0.733,0.133-0.977,0.399c-0.243,0.266-0.386,0.634-0.429,1.104h2.658c0-0.486-0.108-0.858-0.324-1.116
			C40.67,221.128,40.36,220.999,39.958,220.999z"/>
		<path d="M43.285,219.069c0-0.177,0.043-0.306,0.129-0.388c0.088-0.082,0.195-0.123,0.326-0.123c0.123,0,0.229,0.042,0.319,0.125
			s0.135,0.212,0.135,0.385c0,0.173-0.045,0.302-0.135,0.388c-0.09,0.085-0.196,0.127-0.319,0.127c-0.131,0-0.238-0.042-0.326-0.127
			C43.328,219.371,43.285,219.242,43.285,219.069z M44.12,225.532H43.35v-5.085h0.771V225.532z"/>
		<path d="M49.804,219.658c0,0.418-0.222,0.805-0.663,1.16c-0.273,0.217-0.452,0.377-0.539,0.48
			c-0.086,0.104-0.129,0.206-0.129,0.309c0,0.099,0.02,0.181,0.062,0.245c0.041,0.065,0.117,0.142,0.227,0.23
			c0.109,0.088,0.285,0.211,0.527,0.368c0.433,0.294,0.729,0.562,0.886,0.806c0.157,0.242,0.237,0.521,0.237,0.832
			c0,0.495-0.15,0.875-0.451,1.14c-0.3,0.265-0.727,0.396-1.28,0.396c-0.581,0-1.038-0.106-1.368-0.32v-0.714
			c0.194,0.12,0.412,0.217,0.654,0.289c0.24,0.073,0.473,0.109,0.695,0.109c0.665,0,0.998-0.281,0.998-0.845
			c0-0.231-0.064-0.431-0.193-0.596c-0.128-0.165-0.362-0.356-0.703-0.573c-0.393-0.254-0.663-0.476-0.812-0.666
			c-0.148-0.189-0.223-0.415-0.223-0.675c0-0.194,0.054-0.374,0.16-0.538s0.271-0.328,0.489-0.492
			c0.232-0.176,0.397-0.334,0.496-0.473c0.1-0.14,0.148-0.291,0.148-0.455c0-0.247-0.104-0.437-0.314-0.568
			c-0.211-0.131-0.512-0.197-0.905-0.197c-0.854,0-1.28,0.345-1.28,1.035v5.586h-0.771v-5.577c0-0.551,0.171-0.97,0.511-1.259
			c0.34-0.29,0.854-0.434,1.54-0.434c0.638,0,1.13,0.122,1.478,0.364S49.804,219.213,49.804,219.658z"/>
		<path d="M54.03,220.363c0.669,0,1.187,0.229,1.557,0.685s0.555,1.102,0.555,1.938c0,0.835-0.187,1.483-0.56,1.946
			c-0.373,0.462-0.89,0.693-1.552,0.693c-0.331,0-0.634-0.062-0.907-0.184s-0.503-0.31-0.688-0.563h-0.056l-0.162,0.654h-0.553
			v-7.219h0.771v1.753c0,0.394-0.013,0.746-0.037,1.058h0.037C52.793,220.617,53.325,220.363,54.03,220.363z M53.919,221.009
			c-0.526,0-0.905,0.15-1.137,0.452s-0.348,0.81-0.348,1.524c0,0.714,0.119,1.226,0.356,1.533c0.238,0.308,0.621,0.462,1.146,0.462
			c0.474,0,0.826-0.173,1.059-0.518c0.231-0.345,0.348-0.841,0.348-1.487c0-0.662-0.116-1.155-0.348-1.479
			C54.764,221.171,54.404,221.009,53.919,221.009z"/>
		<path d="M59.635,225.625c-0.751,0-1.344-0.229-1.779-0.687c-0.434-0.458-0.651-1.094-0.651-1.907c0-0.819,0.202-1.471,0.605-1.953
			s0.946-0.724,1.626-0.724c0.637,0,1.142,0.209,1.513,0.629c0.371,0.419,0.557,0.972,0.557,1.658v0.487h-3.503
			c0.016,0.597,0.166,1.05,0.453,1.359c0.285,0.31,0.688,0.464,1.208,0.464c0.548,0,1.089-0.114,1.624-0.343v0.687
			c-0.272,0.117-0.529,0.201-0.772,0.253C60.271,225.6,59.979,225.625,59.635,225.625z M59.426,220.999
			c-0.408,0-0.733,0.133-0.977,0.399c-0.242,0.266-0.385,0.634-0.429,1.104h2.659c0-0.486-0.109-0.858-0.325-1.116
			C60.138,221.128,59.828,220.999,59.426,220.999z"/>
		<path d="M66.098,224.145c0,0.474-0.176,0.839-0.528,1.096s-0.848,0.385-1.485,0.385c-0.674,0-1.199-0.106-1.576-0.32v-0.714
			c0.244,0.123,0.506,0.221,0.785,0.292c0.281,0.071,0.551,0.106,0.811,0.106c0.402,0,0.711-0.064,0.928-0.192
			s0.324-0.324,0.324-0.587c0-0.198-0.086-0.367-0.257-0.508c-0.172-0.141-0.507-0.308-1.005-0.499
			c-0.473-0.177-0.81-0.33-1.009-0.462c-0.2-0.131-0.349-0.28-0.445-0.447c-0.098-0.167-0.146-0.367-0.146-0.599
			c0-0.415,0.169-0.741,0.506-0.981c0.337-0.239,0.8-0.359,1.388-0.359c0.547,0,1.082,0.111,1.605,0.334l-0.274,0.626
			c-0.511-0.21-0.973-0.315-1.388-0.315c-0.364,0-0.64,0.058-0.825,0.172s-0.278,0.272-0.278,0.474c0,0.136,0.035,0.252,0.104,0.348
			c0.07,0.096,0.182,0.188,0.337,0.273c0.155,0.087,0.452,0.212,0.892,0.376c0.603,0.22,1.01,0.44,1.222,0.663
			C65.992,223.528,66.098,223.808,66.098,224.145z"/>
		<path d="M68.993,224.989c0.136,0,0.268-0.01,0.395-0.03c0.126-0.02,0.228-0.041,0.302-0.062v0.589
			c-0.084,0.041-0.207,0.074-0.369,0.101s-0.309,0.039-0.438,0.039c-0.983,0-1.476-0.518-1.476-1.555v-3.024h-0.729v-0.371
			l0.729-0.32l0.325-1.086h0.445v1.179h1.476v0.599h-1.476v2.992c0,0.307,0.073,0.541,0.218,0.705
			C68.54,224.907,68.74,224.989,68.993,224.989z"/>
		<path d="M73.832,225.532l-0.152-0.724h-0.037c-0.254,0.318-0.507,0.534-0.759,0.647c-0.253,0.112-0.567,0.169-0.944,0.169
			c-0.504,0-0.899-0.13-1.186-0.39s-0.43-0.63-0.43-1.109c0-1.026,0.822-1.564,2.465-1.614l0.862-0.027v-0.316
			c0-0.398-0.086-0.693-0.257-0.884c-0.172-0.189-0.447-0.285-0.824-0.285c-0.424,0-0.903,0.13-1.438,0.39l-0.237-0.589
			c0.251-0.136,0.524-0.243,0.823-0.32s0.598-0.116,0.898-0.116c0.605,0,1.055,0.135,1.348,0.404c0.292,0.269,0.438,0.7,0.438,1.294
			v3.471H73.832z M72.093,224.989c0.479,0,0.856-0.131,1.13-0.395c0.273-0.263,0.41-0.631,0.41-1.104v-0.46l-0.77,0.032
			c-0.613,0.022-1.055,0.117-1.325,0.286c-0.271,0.168-0.405,0.431-0.405,0.786c0,0.278,0.084,0.49,0.252,0.636
			C71.554,224.917,71.789,224.989,72.093,224.989z"/>
		<path d="M79.47,225.532v-3.29c0-0.414-0.095-0.724-0.283-0.928s-0.483-0.306-0.886-0.306c-0.532,0-0.922,0.144-1.17,0.432
			c-0.247,0.287-0.371,0.762-0.371,1.424v2.668h-0.77v-5.085h0.626l0.126,0.695h0.037c0.157-0.25,0.379-0.444,0.663-0.582
			s0.602-0.206,0.95-0.206c0.613,0,1.074,0.147,1.383,0.443c0.31,0.295,0.465,0.768,0.465,1.417v3.317H79.47z"/>
		<path d="M85.283,224.851h-0.042c-0.355,0.517-0.888,0.774-1.596,0.774c-0.665,0-1.183-0.228-1.552-0.682
			c-0.37-0.455-0.555-1.102-0.555-1.939c0-0.839,0.186-1.489,0.557-1.954c0.371-0.464,0.888-0.695,1.55-0.695
			c0.689,0,1.219,0.25,1.587,0.751h0.061l-0.033-0.366l-0.019-0.357v-2.069h0.771v7.219h-0.627L85.283,224.851z M83.742,224.98
			c0.526,0,0.908-0.144,1.145-0.43s0.354-0.748,0.354-1.385v-0.162c0-0.721-0.12-1.235-0.359-1.543s-0.622-0.462-1.148-0.462
			c-0.452,0-0.798,0.176-1.036,0.526c-0.24,0.352-0.36,0.848-0.36,1.487c0,0.649,0.119,1.14,0.357,1.471
			S83.281,224.98,83.742,224.98z"/>
		<path d="M89.287,224.989c0.137,0,0.268-0.01,0.395-0.03c0.127-0.02,0.228-0.041,0.302-0.062v0.589
			c-0.083,0.041-0.206,0.074-0.368,0.101c-0.163,0.026-0.309,0.039-0.439,0.039c-0.982,0-1.475-0.518-1.475-1.555v-3.024h-0.729
			v-0.371l0.729-0.32l0.324-1.086h0.445v1.179h1.476v0.599h-1.476v2.992c0,0.307,0.073,0.541,0.219,0.705
			C88.834,224.907,89.034,224.989,89.287,224.989z"/>
		<path d="M93.148,225.625c-0.752,0-1.346-0.229-1.779-0.687c-0.436-0.458-0.652-1.094-0.652-1.907c0-0.819,0.201-1.471,0.605-1.953
			c0.403-0.482,0.945-0.724,1.626-0.724c0.638,0,1.142,0.209,1.513,0.629c0.371,0.419,0.557,0.972,0.557,1.658v0.487h-3.503
			c0.016,0.597,0.167,1.05,0.452,1.359c0.286,0.31,0.689,0.464,1.209,0.464c0.547,0,1.089-0.114,1.624-0.343v0.687
			c-0.272,0.117-0.53,0.201-0.772,0.253C93.784,225.6,93.491,225.625,93.148,225.625z M92.939,220.999
			c-0.408,0-0.734,0.133-0.977,0.399c-0.243,0.266-0.387,0.634-0.43,1.104h2.658c0-0.486-0.107-0.858-0.324-1.116
			C93.65,221.128,93.342,220.999,92.939,220.999z"/>
		<path d="M96.266,219.069c0-0.177,0.043-0.306,0.129-0.388c0.088-0.082,0.195-0.123,0.326-0.123c0.123,0,0.229,0.042,0.319,0.125
			s0.135,0.212,0.135,0.385c0,0.173-0.045,0.302-0.135,0.388c-0.09,0.085-0.196,0.127-0.319,0.127c-0.131,0-0.238-0.042-0.326-0.127
			C96.309,219.371,96.266,219.242,96.266,219.069z M97.101,225.532H96.33v-5.085h0.771V225.532z"/>
		<path d="M99.504,225.532h-0.77v-7.219h0.77V225.532z"/>
		<path d="M103.285,225.625c-0.751,0-1.344-0.229-1.779-0.687c-0.434-0.458-0.651-1.094-0.651-1.907
			c0-0.819,0.202-1.471,0.605-1.953s0.946-0.724,1.626-0.724c0.637,0,1.142,0.209,1.513,0.629c0.371,0.419,0.557,0.972,0.557,1.658
			v0.487h-3.503c0.016,0.597,0.166,1.05,0.453,1.359c0.285,0.31,0.688,0.464,1.208,0.464c0.548,0,1.089-0.114,1.624-0.343v0.687
			c-0.272,0.117-0.529,0.201-0.772,0.253C103.922,225.6,103.629,225.625,103.285,225.625z M103.076,220.999
			c-0.408,0-0.733,0.133-0.977,0.399c-0.242,0.266-0.385,0.634-0.429,1.104h2.659c0-0.486-0.109-0.858-0.325-1.116
			C103.788,221.128,103.479,220.999,103.076,220.999z"/>
	</g>
	<g>
		<path d="M27.938,241.979c0,0.597-0.216,1.062-0.649,1.396s-1.021,0.501-1.764,0.501c-0.804,0-1.422-0.104-1.855-0.311v-0.761
			c0.278,0.117,0.582,0.21,0.91,0.278c0.327,0.067,0.652,0.102,0.974,0.102c0.526,0,0.922-0.1,1.188-0.299
			c0.266-0.2,0.398-0.478,0.398-0.833c0-0.235-0.047-0.428-0.142-0.578c-0.095-0.149-0.252-0.288-0.474-0.415
			c-0.221-0.127-0.557-0.271-1.009-0.432c-0.631-0.226-1.082-0.493-1.353-0.803c-0.271-0.309-0.406-0.713-0.406-1.211
			c0-0.522,0.197-0.938,0.59-1.248c0.393-0.309,0.912-0.464,1.559-0.464c0.674,0,1.295,0.124,1.861,0.371l-0.246,0.687
			c-0.561-0.234-1.105-0.353-1.634-0.353c-0.417,0-0.743,0.09-0.979,0.27c-0.234,0.18-0.352,0.429-0.352,0.747
			c0,0.235,0.043,0.428,0.129,0.577c0.087,0.15,0.233,0.288,0.439,0.413c0.205,0.125,0.52,0.264,0.943,0.415
			c0.712,0.254,1.201,0.526,1.469,0.817C27.805,241.138,27.938,241.516,27.938,241.979z"/>
		<path d="M30.852,243.241c0.137,0,0.268-0.01,0.395-0.03c0.127-0.02,0.228-0.041,0.302-0.062v0.589
			c-0.083,0.041-0.206,0.074-0.368,0.101c-0.163,0.026-0.309,0.039-0.439,0.039c-0.982,0-1.475-0.518-1.475-1.555v-3.024h-0.729
			v-0.371l0.729-0.32l0.324-1.086h0.445v1.179h1.476v0.599h-1.476v2.992c0,0.307,0.073,0.541,0.219,0.705
			C30.398,243.159,30.599,243.241,30.852,243.241z"/>
		<path d="M35.691,243.784l-0.153-0.724h-0.037c-0.253,0.318-0.507,0.534-0.759,0.647c-0.252,0.112-0.566,0.169-0.943,0.169
			c-0.505,0-0.9-0.13-1.186-0.39c-0.287-0.26-0.43-0.63-0.43-1.109c0-1.026,0.821-1.564,2.464-1.614l0.862-0.027v-0.316
			c0-0.398-0.086-0.693-0.257-0.884c-0.172-0.189-0.446-0.285-0.823-0.285c-0.424,0-0.904,0.13-1.438,0.39l-0.237-0.589
			c0.251-0.136,0.525-0.243,0.824-0.32s0.598-0.116,0.897-0.116c0.606,0,1.056,0.135,1.349,0.404c0.291,0.269,0.438,0.7,0.438,1.294
			v3.471H35.691z M33.951,243.241c0.479,0,0.856-0.131,1.13-0.395c0.274-0.263,0.411-0.631,0.411-1.104v-0.46l-0.771,0.032
			c-0.612,0.022-1.054,0.117-1.325,0.286c-0.27,0.168-0.405,0.431-0.405,0.786c0,0.278,0.084,0.49,0.253,0.636
			C33.412,243.169,33.648,243.241,33.951,243.241z M33.042,237.321c0-0.161,0.041-0.277,0.123-0.349
			c0.082-0.07,0.181-0.106,0.294-0.106c0.118,0,0.219,0.036,0.305,0.106c0.085,0.071,0.127,0.188,0.127,0.349
			c0,0.154-0.042,0.27-0.127,0.346c-0.086,0.075-0.187,0.113-0.305,0.113c-0.113,0-0.212-0.038-0.294-0.113
			C33.083,237.591,33.042,237.476,33.042,237.321z M34.81,237.321c0-0.161,0.041-0.277,0.123-0.349
			c0.082-0.07,0.181-0.106,0.295-0.106s0.214,0.036,0.299,0.106c0.085,0.071,0.128,0.188,0.128,0.349
			c0,0.154-0.043,0.27-0.128,0.346c-0.085,0.075-0.185,0.113-0.299,0.113s-0.213-0.038-0.295-0.113
			C34.851,237.591,34.81,237.476,34.81,237.321z"/>
		<path d="M40.168,238.606c0.227,0,0.43,0.019,0.608,0.056l-0.106,0.714c-0.211-0.046-0.396-0.069-0.557-0.069
			c-0.412,0-0.764,0.167-1.056,0.501s-0.438,0.75-0.438,1.248v2.729h-0.771v-5.085h0.636l0.088,0.941h0.037
			c0.189-0.331,0.416-0.586,0.683-0.766C39.558,238.696,39.85,238.606,40.168,238.606z"/>
		<path d="M42.488,241.182c0.133-0.189,0.336-0.437,0.608-0.743l1.642-1.739h0.914l-2.06,2.167l2.204,2.918h-0.933l-1.796-2.403
			l-0.58,0.501v1.902h-0.761v-7.22h0.761v3.828c0,0.17-0.012,0.433-0.037,0.789H42.488z"/>
		<path d="M48.863,243.877c-0.751,0-1.344-0.229-1.779-0.687c-0.434-0.458-0.651-1.094-0.651-1.907c0-0.819,0.202-1.471,0.605-1.953
			s0.946-0.724,1.626-0.724c0.637,0,1.142,0.209,1.513,0.629c0.371,0.419,0.557,0.972,0.557,1.658v0.487H47.23
			c0.016,0.597,0.166,1.05,0.453,1.359c0.285,0.31,0.688,0.464,1.208,0.464c0.548,0,1.089-0.114,1.624-0.343v0.687
			c-0.272,0.117-0.529,0.201-0.772,0.253C49.5,243.852,49.207,243.877,48.863,243.877z M48.654,239.251
			c-0.408,0-0.733,0.133-0.977,0.399c-0.242,0.266-0.385,0.634-0.429,1.104h2.659c0-0.486-0.109-0.858-0.325-1.116
			C49.366,239.38,49.057,239.251,48.654,239.251z"/>
		<path d="M52.808,241.182c0.133-0.189,0.335-0.437,0.608-0.743l1.642-1.739h0.914l-2.06,2.167l2.203,2.918h-0.932l-1.797-2.403
			l-0.579,0.501v1.902h-0.761v-7.22h0.761v3.828c0,0.17-0.013,0.433-0.037,0.789H52.808z"/>
		<path d="M61.424,241.237c0,0.829-0.209,1.476-0.627,1.941s-0.994,0.698-1.73,0.698c-0.455,0-0.858-0.106-1.211-0.32
			c-0.353-0.213-0.625-0.52-0.816-0.919c-0.191-0.398-0.287-0.865-0.287-1.4c0-0.829,0.207-1.475,0.621-1.938
			c0.414-0.462,0.99-0.693,1.727-0.693c0.711,0,1.275,0.236,1.695,0.71C61.214,239.789,61.424,240.43,61.424,241.237z
			 M57.549,241.237c0,0.649,0.131,1.145,0.391,1.484s0.642,0.511,1.146,0.511c0.505,0,0.888-0.17,1.148-0.509
			c0.261-0.338,0.392-0.834,0.392-1.486c0-0.646-0.131-1.138-0.392-1.474c-0.261-0.335-0.647-0.503-1.157-0.503
			c-0.504,0-0.885,0.165-1.142,0.496S57.549,240.581,57.549,241.237z M57.777,237.321c0-0.161,0.041-0.277,0.123-0.349
			c0.081-0.07,0.18-0.106,0.294-0.106c0.118,0,0.219,0.036,0.304,0.106c0.085,0.071,0.128,0.188,0.128,0.349
			c0,0.154-0.043,0.27-0.128,0.346c-0.085,0.075-0.186,0.113-0.304,0.113c-0.114,0-0.213-0.038-0.294-0.113
			C57.818,237.591,57.777,237.476,57.777,237.321z M59.545,237.321c0-0.161,0.041-0.277,0.123-0.349
			c0.082-0.07,0.18-0.106,0.294-0.106s0.214,0.036,0.3,0.106c0.084,0.071,0.127,0.188,0.127,0.349c0,0.154-0.043,0.27-0.127,0.346
			c-0.086,0.075-0.186,0.113-0.3,0.113s-0.212-0.038-0.294-0.113C59.586,237.591,59.545,237.476,59.545,237.321z"/>
		<path d="M65.094,238.606c0.226,0,0.428,0.019,0.607,0.056l-0.106,0.714c-0.21-0.046-0.396-0.069-0.558-0.069
			c-0.41,0-0.763,0.167-1.055,0.501c-0.293,0.334-0.438,0.75-0.438,1.248v2.729h-0.771v-5.085h0.636l0.089,0.941h0.037
			c0.188-0.331,0.416-0.586,0.682-0.766C64.482,238.696,64.775,238.606,65.094,238.606z"/>
		<path d="M70.133,243.784v-3.29c0-0.414-0.095-0.724-0.283-0.928c-0.189-0.204-0.484-0.306-0.887-0.306
			c-0.531,0-0.922,0.144-1.169,0.432c-0.247,0.287-0.371,0.762-0.371,1.424v2.668h-0.771v-5.085h0.627l0.125,0.695h0.037
			c0.158-0.25,0.379-0.444,0.664-0.582c0.283-0.138,0.602-0.206,0.95-0.206c0.612,0,1.073,0.147,1.383,0.443
			c0.31,0.295,0.464,0.768,0.464,1.417v3.317H70.133z"/>
		<path d="M74.633,243.877c-0.752,0-1.345-0.229-1.779-0.687s-0.652-1.094-0.652-1.907c0-0.819,0.202-1.471,0.605-1.953
			c0.404-0.482,0.946-0.724,1.627-0.724c0.637,0,1.141,0.209,1.512,0.629c0.371,0.419,0.557,0.972,0.557,1.658v0.487H73
			c0.016,0.597,0.166,1.05,0.452,1.359s0.688,0.464,1.208,0.464c0.548,0,1.09-0.114,1.625-0.343v0.687
			c-0.273,0.117-0.53,0.201-0.773,0.253C75.27,243.852,74.977,243.877,74.633,243.877z M74.424,239.251
			c-0.408,0-0.734,0.133-0.977,0.399c-0.242,0.266-0.386,0.634-0.43,1.104h2.659c0-0.486-0.108-0.858-0.325-1.116
			C75.135,239.38,74.826,239.251,74.424,239.251z"/>
		<path d="M80.135,238.606c0.227,0,0.43,0.019,0.608,0.056l-0.106,0.714c-0.211-0.046-0.396-0.069-0.557-0.069
			c-0.412,0-0.764,0.167-1.056,0.501s-0.438,0.75-0.438,1.248v2.729h-0.771v-5.085h0.636l0.088,0.941h0.037
			c0.189-0.331,0.416-0.586,0.683-0.766C79.524,238.696,79.816,238.606,80.135,238.606z"/>
	</g>
</g>
</svg>
