<?xml version="1.0" encoding="utf-8"?>
<!-- Generator: Adobe Illustrator 21.1.0, SVG Export Plug-In . SVG Version: 6.00 Build 0)  -->
<svg version="1.1" xmlns="http://www.w3.org/2000/svg" xmlns:xlink="http://www.w3.org/1999/xlink" x="0px" y="0px"
	 viewBox="0 0 520 344" enable-background="new 0 0 520 344" xml:space="preserve">
<g id="Ebene_2">
	<rect x="-1" fill="#FFFFFF" width="520" height="369"/>
</g>
<g id="Ebene_1">
	<path fill="#CCCCCC" stroke="#000000" stroke-miterlimit="10" d="M302.314,351.313c18.619-28.477,36.144-120.479,41.62-159.908
		c5.476-39.429-10.953-74.478-30.667-115.003s-39.429-48.192-46.001-48.192c-6.572,0-7.667,8.762-18.619,20.81
		c-8.335,9.169-24.096,47.096-33.953,63.525s-32.858,59.144-32.858,88.716c0,62.43,32.858,153.337,32.858,153.337L302.314,351.313z"
		/>
	<path fill="#F2F2F2" stroke="#000000" stroke-miterlimit="10" d="M221.812,354.051c0.548,0.548-31.753-99.414-31.791-157.064
		c-0.018-27.251,21.002-66.613,30.002-81.752s23.391-50.089,31.002-58.538c10.001-11.102,11.001-19.176,17.001-19.176
		c6,0,24.002,7.065,42.003,44.408c18.001,37.343,33.002,69.641,28.002,105.975s-23.097,137.168-40.099,163.409"/>
	<path fill="#B3B3B3" stroke="#000000" stroke-miterlimit="10" d="M292.456,351.313c15.751-24.46,35.537-129.896,40.17-163.763
		s-9.266-63.971-25.943-98.779c-16.678-34.808-33.356-41.393-38.915-41.393s-6.486,7.526-15.751,17.874
		c-7.051,7.875-20.384,40.452-28.723,54.564c-8.339,14.111-27.797,50.801-27.797,76.201c0,53.623,32.339,158.582,32.339,158.582
		L292.456,351.313z"/>
	<path fill="#FFFFFF" stroke="#000000" stroke-miterlimit="10" d="M207.544,150.696c-10.982,22.269,4.411,10.589,19.745,11.684
		s30.667-12.048,56.954-36.144s18.041-46.018,18.041-46.018s-11.132-19.528-21.961-27.39c-9.771-7.094-15.248-4.904-15.248-4.904
		l-4.381,5.476l-7.424,10.405c0,0-8.735,12.743-9.418,14.86c-0.682,2.117-29.342,57.245-29.342,57.245L207.544,150.696z"/>
	<path fill="#808080" stroke="#000000" stroke-miterlimit="10" d="M267.813,82.426c0,0-16.429-25.191,1.46-20.754
		c6.274,1.556-17.889,1.039,7.302,20.754"/>
	<path fill="#F2F2F2" stroke="#000000" stroke-miterlimit="10" d="M275.051,77.226c0,0-20.488,9.848-34.397,26.203
		c-20.514,24.121-5.414,41.098,9.634,31.57c15.049-9.528,1.339-19.852,14.238-31.763c12.899-11.91,7.83-15.717,16.429-10.953
		c8.599,4.764,7.118-11.441,4.968-13.823C283.775,76.078,275.051,77.226,275.051,77.226z"/>
	<path fill="#E6E6E6" stroke="#000000" stroke-miterlimit="10" d="M274.276,80.422c0,0-16.714,7.251-28.062,19.293
		c-16.736,17.76-8.203,28.061,4.074,21.046s0.429-15.326,10.953-24.096s11.604-12.27,18.619-8.762
		c7.015,3.508,5.04-4.818,3.286-6.572C281.393,79.577,274.276,80.422,274.276,80.422z"/>
	<path fill="#CCCCCC" stroke="#000000" stroke-miterlimit="10" d="M274.384,83.521c0,0-21.905,10.953-25.901,19.617
		c-4.328,9.385-7.786,16.333,0,11.977c7.786-4.355,0.607-10.817,7.281-16.261c6.674-5.444,15.266-16.416,19.715-14.238
		s6.271-1.129,5.159-2.217S274.384,83.521,274.384,83.521z"/>
	<path fill="#F2F2F2" stroke="#000000" stroke-miterlimit="10" d="M253.574,224.81c0,0-5.476,1.095-4.381,4.381
		c1.095,3.286,2.191,7.667,6.572,6.572s6.572-1.095,6.572-5.476C262.337,225.905,253.574,224.81,253.574,224.81z"/>
	<path fill="#F2F2F2" stroke="#000000" stroke-miterlimit="10" d="M260.694,235.215c0,0-5.867,0.548-4.953,3.833
		c0.915,3.286,1.829,7.667,5.488,6.572c3.659-1.095,5.488-1.095,5.488-5.476C266.718,235.763,260.694,235.215,260.694,235.215z"/>
	<path fill="#F2F2F2" stroke="#000000" stroke-miterlimit="10" d="M262.337,228.753c0,0,0-3.943,4.596-3.943
		s8.043,2.629,6.894,6.572c-1.149,3.943-1.149,6.572-3.447,6.572c-2.298,0-7.441-1.661-8.043-3.373
		C261.789,233.025,262.337,228.753,262.337,228.753z"/>
	<path fill="#F2F2F2" stroke="#000000" stroke-miterlimit="10" d="M237.056,240.808c0,0-3.976,2.899-1.886,5.123
		s4.585,5.324,7.685,2.829c3.1-2.495,4.852-3.304,3.233-6.809C244.469,238.447,237.056,240.808,237.056,240.808z"/>
	<path fill="#F2F2F2" stroke="#000000" stroke-miterlimit="10" d="M246.595,246.501c0,0-4.491,2.606-2.545,4.896
		s4.296,5.457,6.818,3.229c2.522-2.228,3.986-2.904,2.367-6.408C251.616,244.713,246.595,246.501,246.595,246.501z"/>
	<path fill="#F2F2F2" stroke="#000000" stroke-miterlimit="10" d="M258.278,246.316c0,0-5.273,2.968-3.203,5.205
		c2.069,2.238,4.544,5.353,7.553,2.899c3.009-2.454,4.716-3.243,3.095-6.752C264.102,244.158,258.278,246.316,258.278,246.316z"/>
	<path fill="#F2F2F2" stroke="#000000" stroke-miterlimit="10" d="M245.521,240.725c0,0-1.457-3.154,2.22-4.852
		c3.676-1.698,7.405-0.869,7.943,2.71c0.538,3.579,1.509,5.681-0.329,6.53c-1.838,0.849-6.566,1.42-7.68,0.274
		C246.661,244.344,245.521,240.725,245.521,240.725z"/>
	<path fill="#F2F2F2" stroke="#000000" stroke-miterlimit="10" d="M274.055,239.479c0,0-4.82-2.949-6.264,0.244
		s-3.641,7.199,0.365,9.396c4.006,2.197,5.633,3.702,8.643,0.448C279.81,246.313,274.055,239.479,274.055,239.479z"/>
	<path fill="#F2F2F2" stroke="#000000" stroke-miterlimit="10" d="M272.193,252.098c0,0-4.734-3.625-6.312-0.556
		s-3.909,6.951-0.439,8.651s4.828,2.957,7.838-0.296C276.291,256.643,272.193,252.098,272.193,252.098z"/>
	<path fill="#F2F2F2" stroke="#000000" stroke-miterlimit="10" d="M277.853,248.428c0,0,2.709-2.928,6.122,0.229
		c3.413,3.158,4.167,7.478,0.605,9.617c-3.562,2.139-5.368,4.091-7.075,2.512c-1.707-1.579-4.384-6.346-3.656-8.031
		C274.512,251.224,277.853,248.428,277.853,248.428z"/>
	<circle cx="280.408" cy="251.644" r="1.095"/>
	<circle cx="270.003" cy="256.573" r="1.095"/>
	<circle cx="262.337" cy="250.001" r="1.095"/>
	<circle cx="263.432" cy="241.239" r="1.095"/>
	<circle cx="250.289" cy="239.049" r="1.095"/>
	<circle cx="280.956" cy="255.478" r="0.548"/>
	<circle cx="272.742" cy="257.12" r="0.548"/>
	<circle cx="269.456" cy="256.025" r="0.548"/>
	<circle cx="258.503" cy="249.454" r="0.548"/>
	<circle cx="253.027" cy="241.787" r="0.548"/>
	<circle cx="271.646" cy="245.073" r="0.548"/>
	<circle cx="243.169" cy="243.977" r="0.548"/>
	<circle cx="273.837" cy="246.168" r="0.548"/>
	<circle cx="247.551" cy="250.549" r="0.548"/>
	<circle cx="269.456" cy="233.025" r="0.548"/>
	<circle cx="257.408" cy="230.834" r="0.548"/>
	<circle cx="269.456" cy="246.168" r="0.548"/>
	<circle cx="239.884" cy="243.977" r="0.548"/>
	<circle cx="249.741" cy="249.454" r="0.548"/>
	<circle cx="269.456" cy="229.739" r="0.548"/>
	<circle cx="267.265" cy="230.834" r="0.548"/>
	<circle cx="260.694" cy="240.692" r="0.548"/>
	<circle cx="249.741" cy="250.549" r="0.548"/>
	<circle cx="255.217" cy="229.739" r="0.548"/>
</g>
</svg>
